<?xml version="1.0" encoding="utf-8"?>
<!-- Generator: Adobe Illustrator 21.1.0, SVG Export Plug-In . SVG Version: 6.00 Build 0)  -->
<svg version="1.1" id="Layer_2" xmlns="http://www.w3.org/2000/svg" xmlns:xlink="http://www.w3.org/1999/xlink" x="0px" y="0px"
	 viewBox="0 0 771 384" style="enable-background:new 0 0 771 384;" xml:space="preserve">
<style type="text/css">
	.st0{fill:#F9F185;stroke:#FFFFFF;stroke-miterlimit:10;}
	.st1{fill:#B2B6AB;stroke:#FFFFFF;stroke-miterlimit:10;}
	.st2{fill:#FFF218;stroke:#FFFFFF;stroke-miterlimit:10;}
	.st3{fill:none;stroke:#4D4D4D;stroke-width:1.52;stroke-miterlimit:10;}
	.st4{fill:#4D4D4D;}
	.st5{fill:#878984;stroke:#FFFFFF;stroke-miterlimit:10;}
	.st6{fill:#5A5B59;stroke:#FFFFFF;stroke-miterlimit:10;}
	.st7{fill:#E0E0E0;}
	.st8{fill:#FFFFFF;}
	.st9{fill:none;stroke:#808080;stroke-linecap:round;stroke-miterlimit:10;}
	.st10{fill:none;stroke:#808080;stroke-linecap:round;stroke-miterlimit:10;stroke-dasharray:0.25,6.05;}
	.st11{fill:none;stroke:#808080;stroke-linecap:round;stroke-miterlimit:10;stroke-dasharray:0.24,5.82;}
	.st12{fill:none;stroke:#808080;stroke-linecap:round;stroke-miterlimit:10;stroke-dasharray:0.24,5.66;}
	.st13{fill:none;stroke:#808080;stroke-linecap:round;stroke-miterlimit:10;stroke-dasharray:0.25,5.94;}
	.st14{fill:none;stroke:#808080;stroke-linecap:round;stroke-miterlimit:10;stroke-dasharray:0.25,6.03;}
	.st15{fill:none;stroke:#808080;stroke-linecap:round;stroke-miterlimit:10;stroke-dasharray:0.24,5.76;}
	.st16{fill:none;stroke:#000000;stroke-width:0.75;stroke-linecap:round;stroke-miterlimit:10;stroke-dasharray:0.25,3;}
	.st17{fill:none;stroke:#808080;stroke-linecap:round;stroke-linejoin:round;}
	.st18{fill:none;stroke:#808080;stroke-linecap:round;stroke-linejoin:round;stroke-dasharray:0.26,6.17;}
	.st19{fill:none;stroke:#808080;stroke-linecap:round;stroke-linejoin:round;stroke-dasharray:0.25,6.06;}
	.st20{fill:none;stroke:#808080;stroke-linecap:round;stroke-linejoin:round;stroke-dasharray:0.25,6.03;}
	.st21{fill:none;stroke:#808080;stroke-linecap:round;stroke-miterlimit:10;stroke-dasharray:0.25,6;}
	.st22{fill:none;stroke:#808080;stroke-width:0.75;stroke-linecap:round;stroke-miterlimit:10;stroke-dasharray:0.25,3;}
	.st23{fill:none;stroke:#808080;stroke-linecap:round;stroke-miterlimit:10;stroke-dasharray:0.25,6.02;}
	.st24{fill:none;stroke:#808080;stroke-linecap:round;stroke-miterlimit:10;stroke-dasharray:0.26,6.13;}
	.st25{fill:none;stroke:#808080;stroke-linecap:round;stroke-miterlimit:10;stroke-dasharray:0.25,6.11;}
	.st26{fill:none;stroke:#808080;stroke-linecap:round;stroke-miterlimit:10;stroke-dasharray:0.21,5.02;}
</style>
<title>LA_System</title>
<rect x="52.5" y="37.5" class="st0" width="111" height="77.5"/>
<rect x="52.5" y="191" class="st1" width="111" height="54.5"/>
<rect x="278.5" y="191" class="st1" width="111" height="54.5"/>
<rect x="52.5" y="115" class="st2" width="111" height="76"/>
<rect x="63" y="246" class="st0" width="88" height="30"/>
<rect x="290" y="246" class="st0" width="88" height="30"/>
<line class="st3" x1="108" y1="283.9" x2="108" y2="295.1"/>
<polygon class="st4" points="105,284.7 108,279.5 111,284.7 "/>
<polygon class="st4" points="105,294.3 108,299.5 111,294.3 "/>
<line class="st3" x1="337" y1="283.9" x2="337" y2="295.1"/>
<polygon class="st4" points="334,284.7 337,279.5 340,284.7 "/>
<polygon class="st4" points="334,294.3 337,299.5 340,294.3 "/>
<rect x="52" y="302" class="st5" width="111" height="54"/>
<rect x="279" y="302" class="st5" width="111" height="54"/>
<rect x="397" y="191" class="st6" width="80" height="81"/>
<rect x="278.5" y="167" class="st6" width="198.5" height="24"/>
<rect x="616" y="38" class="st0" width="110" height="77"/>
<rect x="616" y="115" class="st2" width="110" height="76"/>
<rect x="628" y="191" class="st6" width="80" height="81"/>
<line class="st3" x1="174.4" y1="347" x2="270.6" y2="347"/>
<polygon class="st4" points="175.4,350.4 169.5,347 175.4,343.6 "/>
<polygon class="st4" points="269.6,350.4 275.5,347 269.6,343.6 "/>
<rect x="189.4" y="38" class="st7" width="30" height="237.6"/>
<path d="M28.2,356.6l-1.8-1.5c0.9-0.9,1.3-2.1,1.4-3.4c0-1-0.4-1.6-1.1-1.6l0,0c-0.6,0-1,0.4-1.4,2.3c-0.6,2.3-1.2,3.8-3.5,3.8l0,0
	c-2.1,0-3.4-1.7-3.4-4c0-1.5,0.5-3,1.4-4.2l1.9,1.3c-0.7,0.8-1.1,1.9-1.1,3c0,1,0.4,1.5,1,1.5l0,0c0.8,0,1-0.5,1.5-2.5
	c0.6-2.3,1.4-3.6,3.4-3.6l0,0c2.2,0,3.5,1.7,3.5,4.2C30,353.5,29.4,355.2,28.2,356.6z"/>
<path d="M25.5,346.1L25.5,346.1c-2.4,0.1-4.4-1.7-4.5-4.1c0-0.1,0-0.1,0-0.2c0-2.9,2.3-4.2,4.7-4.2h0.7v6c1-0.2,1.8-1.1,1.7-2.1
	c0-0.8-0.3-1.6-0.9-2.1l1.2-1.4c1.9,1.6,2.2,4.5,0.5,6.5C28.1,345.4,26.9,346,25.5,346.1L25.5,346.1z M24.8,340
	c-1,0-1.8,0.8-1.8,1.8c0,1,0.7,1.7,1.8,1.9V340z"/>
<path d="M21.2,335.8v-2.5h1.2c-0.9-0.6-1.4-1.5-1.4-2.5c0-1.9,1.2-3,3.2-3h5.6v2.5H25c-1.2,0-1.8,0.5-1.8,1.5s0.6,1.5,1.8,1.5h4.8
	v2.5L21.2,335.8z"/>
<path d="M28.7,326.4l-1.6-1c0.6-0.8,1-1.7,1-2.7c0-0.7-0.3-1-0.7-1l0,0c-0.5,0-0.7,0.9-1,1.8c-0.3,1.2-0.9,2.6-2.6,2.6l0,0
	c-1.8,0-2.8-1.4-2.8-3.2c0-1.2,0.4-2.3,1-3.2l1.7,0.9c-0.5,0.7-0.7,1.5-0.8,2.4c0,0.6,0.3,0.9,0.6,0.9l0,0c0.5,0,0.7-0.8,1-1.8
	c0.4-1.2,1-2.6,2.6-2.6l0,0c1.9,0,2.8,1.4,2.8,3.3C29.9,324,29.5,325.3,28.7,326.4z"/>
<path d="M25.5,318L25.5,318c-2.5,0-4.5-2.1-4.5-4.6c0,0,0-0.1,0-0.1c-0.1-2.5,1.9-4.6,4.4-4.7c0,0,0.1,0,0.1,0l0,0
	c2.6,0,4.7,2.1,4.7,4.7C30.2,315.8,28.1,317.9,25.5,318L25.5,318z M25.5,311L25.5,311c-1.3,0-2.3,0.9-2.4,2.2c0,0,0,0,0,0.1
	c0,1.2,1,2.2,2.2,2.3c0.1,0,0.1,0,0.2,0l0,0c1.3,0,2.3-1,2.4-2.2c0,0,0,0,0-0.1c0-1.2-1-2.2-2.2-2.2C25.6,311,25.6,311,25.5,311
	L25.5,311z"/>
<path d="M21.2,306.8v-2.5h1.8c-1.2-0.4-2-1.5-1.9-2.8h2.6v0.1c0,1.6,1,2.6,3.1,2.6h3.2v2.5L21.2,306.8z"/>
<path d="M496.2,265.8L496.2,265.8c-3.2,0-5.8-2.6-5.9-5.8c0-0.1,0-0.1,0-0.2c-0.1-1.6,0.5-3.2,1.5-4.5l1.9,1.6
	c-0.8,0.8-1.2,1.9-1.1,3c0.1,1.9,1.7,3.3,3.5,3.3l0,0c1.9,0.1,3.5-1.3,3.6-3.2c0-0.1,0-0.2,0-0.2c0-0.8-0.2-1.6-0.7-2.3h-1.6v2.5
	h-2.2V255h4.9c1.2,1.3,1.8,3.1,1.8,4.9c0.1,3.1-2.3,5.8-5.4,5.9C496.5,265.8,496.3,265.8,496.2,265.8z"/>
<path d="M499.4,253.2L499.4,253.2c-1.9,0-2.8-1.4-2.8-3.5c0-0.7,0.1-1.4,0.4-2.1h-0.1c-1,0-1.6,0.6-1.6,1.9c0,0.8,0.2,1.6,0.5,2.4
	l-1.9,0.6c-0.5-1.1-0.7-2.2-0.7-3.4c-0.1-1.1,0.3-2.1,1-2.9c0.8-0.7,1.8-1,2.8-0.9h5v2.4h-0.9c0.7,0.7,1.1,1.6,1.1,2.6
	c0.2,1.5-0.9,2.8-2.4,3C499.6,253.2,499.5,253.2,499.4,253.2z M498.8,247.6h-0.4c-0.2,0.5-0.3,1-0.3,1.6c0,1,0.4,1.7,1.2,1.7l0,0
	c0.7,0,1-0.5,1-1.4C500.3,248.4,499.7,247.6,498.8,247.6L498.8,247.6z"/>
<path d="M499.4,242.8h-4.1v1h-2.1v-1h-2.2v-2.5h2.2v-2h2.1v2h3.7c0.6,0,0.9-0.2,0.9-0.8c0-0.4-0.1-0.8-0.3-1.2h2
	c0.4,0.6,0.5,1.3,0.5,2C502,241.8,501.4,242.8,499.4,242.8z"/>
<path d="M497.5,237.1L497.5,237.1c-2.4,0.1-4.4-1.7-4.5-4.1c0-0.1,0-0.1,0-0.2c0-2.9,2.3-4.2,4.7-4.2c0.2,0,0.4,0,0.6,0v6
	c1-0.2,1.8-1.1,1.7-2.1c0-0.8-0.3-1.6-0.9-2.1l1.2-1.4c1.9,1.6,2.2,4.5,0.5,6.5C500.1,236.4,498.9,237,497.5,237.1L497.5,237.1z
	 M496.8,231c-1,0-1.8,0.8-1.9,1.8c0,1,0.8,1.8,1.9,1.9V231z"/>
<path d="M493.1,227.9v-2.5l5.3-1.4l-5.3-1.6v-2.1l5.3-1.6l-5.3-1.4v-2.4l8.8,2.7v2.2l-5.3,1.7l5.3,1.7v2.2L493.1,227.9z"/>
<path d="M499.4,214.1L499.4,214.1c-1.9,0-2.8-1.4-2.8-3.5c0-0.7,0.1-1.4,0.4-2.1h-0.1c-1,0-1.6,0.6-1.6,1.9c0,0.8,0.2,1.6,0.5,2.4
	l-1.9,0.6c-0.5-1.1-0.7-2.2-0.7-3.4c-0.1-1.1,0.3-2.1,1-2.9c0.8-0.7,1.8-1,2.8-0.9h5v2.4h-0.9c0.7,0.7,1.1,1.6,1.1,2.6
	c0.2,1.5-0.9,2.8-2.4,3C499.6,214.1,499.5,214.1,499.4,214.1z M498.8,208.4h-0.4c-0.2,0.5-0.3,1-0.3,1.6c0,1.1,0.4,1.7,1.2,1.7l0,0
	c0.7,0,1-0.6,1-1.4C500.3,209.2,499.7,208.4,498.8,208.4L498.8,208.4z"/>
<path d="M503.9,204.4l-1.8-0.8c0.2-0.3,0.3-0.7,0.3-1.1c0-0.4-0.2-0.7-0.6-0.9l-8.7,3.4v-2.6l5.9-2l-5.9-1.9V196l8.9,3.3
	c1.8,0.7,2.4,1.4,2.4,2.9C504.5,203,504.3,203.7,503.9,204.4z"/>
<path d="M509.9,248.7v-2.5h4.4v-4.6h-4.5v-2.5h11.4v2.5h-4.5v4.6h4.5v2.5H509.9z"/>
<path d="M517,237.1L517,237.1c-2.5,0-4.5-2.1-4.5-4.6c0,0,0-0.1,0-0.1c-0.1-2.5,1.8-4.6,4.3-4.7c0.1,0,0.1,0,0.2,0l0,0
	c2.6,0.1,4.6,2.3,4.5,4.9C521.3,235,519.4,236.9,517,237.1L517,237.1z M517,230.1L517,230.1c-1.3,0-2.3,0.9-2.4,2.2c0,0,0,0,0,0.1
	c0,1.2,1,2.2,2.2,2.3c0.1,0,0.1,0,0.2,0l0,0c1.3,0.1,2.4-0.9,2.4-2.2c0,0,0,0,0,0c0-1.2-0.9-2.3-2.2-2.3
	C517.1,230.1,517.1,230.1,517,230.1L517,230.1z"/>
<path d="M520.1,226.6l-1.6-1c0.6-0.8,1-1.7,1-2.7c0-0.7-0.2-1-0.6-1l0,0c-0.5,0-0.7,0.9-1,1.8c-0.4,1.2-0.9,2.6-2.6,2.6l0,0
	c-1.8,0-2.8-1.4-2.8-3.2c0-1.2,0.4-2.3,1-3.2l1.7,0.9c-0.5,0.7-0.7,1.5-0.8,2.4c0,0.6,0.3,0.9,0.6,0.9l0,0c0.5,0,0.7-0.8,1-1.8
	c0.4-1.2,1-2.6,2.6-2.6l0,0c1.9,0,2.8,1.4,2.8,3.3C521.4,224.2,520.9,225.5,520.1,226.6z"/>
<path d="M518.8,217.5h-4.1v1h-2.1v-1h-2.2V215h2.2v-2h2.1v2h3.7c0.6,0,0.8-0.2,0.8-0.8c0-0.4-0.1-0.8-0.3-1.2h2
	c0.4,0.6,0.5,1.3,0.5,2C521.4,216.5,520.8,217.5,518.8,217.5z"/>
<path d="M721.5,265.9v-2.3l7-5.3h-7v-2.5h11.3v2.1l-7.2,5.5h7.2v2.5L721.5,265.9z"/>
<path d="M728.5,253.7L728.5,253.7c-2.4,0.1-4.4-1.7-4.5-4.1c0-0.1,0-0.1,0-0.2c0-2.9,2.3-4.2,4.7-4.2c0.2,0,0.4,0,0.7,0v6
	c1-0.2,1.8-1.1,1.7-2.1c0-0.8-0.3-1.6-0.9-2.1l1.2-1.4c1.9,1.6,2.2,4.5,0.5,6.5C731.1,253.1,729.9,253.6,728.5,253.7L728.5,253.7z
	 M727.8,247.6c-1,0-1.8,0.8-1.8,1.8c0,1,0.8,1.8,1.8,1.9V247.6z"/>
<path d="M730.4,243h-4.1v1h-2.1v-1h-2.2v-2.5h2.2v-2h2.1v2h3.7c0.6,0,0.8-0.2,0.8-0.8c0-0.4-0.1-0.8-0.3-1.2h2
	c0.3,0.6,0.5,1.3,0.5,1.9C733,242,732.4,243,730.4,243z"/>
<path d="M724.2,237.4v-2.5l5.3-1.4l-5.3-1.6v-2.1l5.3-1.6l-5.3-1.4v-2.4l8.8,2.7v2.2l-5.3,1.7l5.3,1.7v2.2L724.2,237.4z"/>
<path d="M728.5,223.5L728.5,223.5c-2.6,0-4.7-2.1-4.7-4.7c0-2.6,2.1-4.7,4.7-4.7l0,0c2.5,0,4.5,2.1,4.5,4.6c0,0,0,0.1,0,0.1
	c0.1,2.5-1.9,4.6-4.4,4.7C728.6,223.5,728.6,223.5,728.5,223.5z M728.5,216.5L728.5,216.5c-1.3,0-2.3,0.9-2.4,2.2c0,0,0,0,0,0.1
	c0,1.2,1,2.2,2.2,2.3c0.1,0,0.1,0,0.2,0l0,0c1.3,0,2.3-0.9,2.4-2.2c0,0,0,0,0-0.1c0-1.2-1-2.2-2.2-2.2
	C728.6,216.6,728.6,216.6,728.5,216.5L728.5,216.5z"/>
<path d="M724.2,212.4v-2.5h1.8c-1.2-0.4-2-1.5-1.9-2.8h2.6v0.1c0,1.6,1,2.6,3.1,2.6h3.2v2.5H724.2z"/>
<path d="M721,205.6v-2.5h6.3l-3.2-2.9v-2.9l3.4,3.3l5.3-3.4v2.8l-3.5,2.3l0.9,0.9h2.6v2.5H721z"/>
<path d="M750.6,258.1l-1.8-1.5c0.9-0.9,1.3-2.1,1.4-3.4c0-1-0.4-1.6-1.1-1.6l0,0c-0.6,0-1,0.4-1.5,2.3c-0.6,2.3-1.2,3.8-3.5,3.8l0,0
	c-2.1,0-3.4-1.7-3.4-4c0-1.5,0.5-3,1.5-4.2l1.9,1.3c-0.7,0.8-1.1,1.9-1.1,3c0,1,0.4,1.5,1,1.5l0,0c0.7,0,1-0.5,1.5-2.5
	c0.6-2.3,1.4-3.6,3.4-3.6l0,0c2.3,0,3.5,1.7,3.5,4.2C752.5,255,751.8,256.8,750.6,258.1z"/>
<path d="M748,247.6L748,247.6c-2.4,0.1-4.4-1.7-4.5-4.1c0-0.1,0-0.1,0-0.2c0-2.9,2.2-4.2,4.7-4.2h0.6v6c1-0.1,1.8-1.1,1.7-2.1
	c0-0.8-0.3-1.6-0.9-2.1l1.2-1.4c1.9,1.6,2.2,4.5,0.5,6.5C750.6,246.9,749.3,247.5,748,247.6L748,247.6z M747.3,241.5
	c-1,0-1.8,0.8-1.8,1.8c0,1,0.7,1.7,1.8,1.9V241.5z"/>
<path d="M743.6,237.3v-2.5h1.8c-1.2-0.4-2-1.5-1.9-2.8h2.6v0.1c0,1.6,1,2.6,3.1,2.6h3.2v2.5H743.6z"/>
<path d="M743.6,231.3v-2.6l5.8-1.9l-5.8-2v-2.6l8.8,3.4v2.2L743.6,231.3z"/>
<path d="M748,221.7L748,221.7c-2.4,0.1-4.4-1.7-4.5-4.1c0-0.1,0-0.1,0-0.2c0-2.9,2.2-4.2,4.7-4.2h0.6v6c1-0.1,1.8-1.1,1.7-2.1
	c0-0.8-0.3-1.6-0.9-2.1l1.2-1.4c1.9,1.6,2.2,4.5,0.5,6.5C750.6,221,749.3,221.6,748,221.7L748,221.7z M747.3,215.5
	c-1,0-1.9,0.8-1.9,1.8c0,1,0.8,1.8,1.8,1.9L747.3,215.5z"/>
<path d="M743.6,211.3v-2.5h1.8c-1.2-0.4-2-1.5-1.9-2.8h2.6v0.1c0,1.6,1,2.6,3.1,2.6h3.2v2.5H743.6z"/>
<path d="M487.8,285.6h8.6v2.2h-6.1v2.3h5.4v2.2h-5.4v2.4h6.2v2.2h-8.6L487.8,285.6z"/>
<path d="M498.8,294.5v-4.1h-1v-2.1h1v-2.2h2.5v2.2h2v2.1h-2v3.7c0,0.6,0.2,0.9,0.8,0.9c0.4,0,0.8-0.1,1.2-0.3v2
	c-0.6,0.3-1.3,0.5-2,0.5C499.8,297.1,498.8,296.5,498.8,294.5z"/>
<path d="M505.1,285.1h2.5v4.4c0.6-0.9,1.5-1.4,2.5-1.4c1.9,0,3,1.2,3,3.2v5.6h-2.5v-4.8c0-1.2-0.5-1.8-1.5-1.8s-1.5,0.6-1.5,1.8v4.8
	h-2.5L505.1,285.1z"/>
<path d="M514.8,292.6L514.8,292.6c-0.1-2.4,1.7-4.4,4.1-4.5c0.1,0,0.1,0,0.2,0c2.9,0,4.2,2.3,4.2,4.7c0,0.2,0,0.4,0,0.6h-6
	c0.2,1,1.1,1.8,2.1,1.7c0.8,0,1.6-0.3,2.1-0.9l1.4,1.2c-1.6,1.9-4.5,2.2-6.5,0.5C515.5,295.2,514.9,294,514.8,292.6L514.8,292.6z
	 M520.9,291.9c0-1-0.8-1.8-1.8-1.9c-1,0-1.7,0.7-1.9,1.9H520.9z"/>
<path d="M525.2,288.2h2.5v1.8c0.4-1.2,1.5-2,2.8-1.9v2.6h-0.1c-1.6,0-2.6,1-2.6,3.1v3.2h-2.5V288.2z"/>
<path d="M531.9,288.2h2.4v1.2c0.6-0.9,1.5-1.4,2.5-1.4c1.9,0,3,1.2,3,3.2v5.6h-2.5v-4.8c0-1.2-0.5-1.8-1.5-1.8s-1.5,0.6-1.5,1.8v4.8
	H532L531.9,288.2z"/>
<path d="M541.6,292.6L541.6,292.6c-0.1-2.4,1.7-4.4,4.1-4.5c0.1,0,0.1,0,0.2,0c2.9,0,4.2,2.3,4.2,4.7c0,0.2,0,0.4,0,0.6h-6
	c0.2,1,1.1,1.8,2.1,1.7c0.8,0,1.6-0.3,2.1-0.9l1.4,1.2c-1.6,1.9-4.5,2.2-6.5,0.5C542.3,295.2,541.7,294,541.6,292.6L541.6,292.6z
	 M547.7,291.9c0-1-0.8-1.8-1.8-1.9c-1,0-1.8,0.8-1.9,1.9H547.7z"/>
<path d="M552.4,294.5v-4.1h-1v-2.1h1v-2.2h2.5v2.2h2v2.1h-2v3.7c0,0.6,0.2,0.9,0.8,0.9c0.4,0,0.8-0.1,1.2-0.3v2
	c-0.6,0.3-1.3,0.5-1.9,0.5C553.4,297.1,552.4,296.5,552.4,294.5z"/>
<path d="M558,298.5c1.1-0.1,1.7-0.7,1.6-1.6h-1v-2.6h2.6v2.2c0,2.1-1.1,3-3,3L558,298.5z"/>
<path d="M567.7,295.2l1.7-1.6c0.7,0.9,1.7,1.4,2.7,1.4c0.8,0.1,1.5-0.5,1.6-1.2c0-0.1,0-0.1,0-0.2l0,0c0-0.9-0.8-1.4-2.2-1.4h-1
	l-0.4-1.6l2.7-2.7h-4.5v-2.1h7.7v1.9l-2.9,2.7c1.5,0.3,3,1.1,3,3.2l0,0c0,2.1-1.6,3.7-4.1,3.7C570.4,297.2,568.8,296.5,567.7,295.2z
	"/>
<path d="M578,291.3L578,291.3c0-3.2,2.6-5.8,5.8-5.9c0.1,0,0.1,0,0.2,0c1.6-0.1,3.2,0.5,4.5,1.6l-1.6,1.9c-0.8-0.8-1.9-1.2-3-1.2
	c-1.9,0.1-3.3,1.7-3.2,3.5l0,0c-0.1,1.9,1.3,3.5,3.2,3.6c0.1,0,0.2,0,0.2,0c0.8,0,1.7-0.2,2.3-0.7v-1.6h-2.5v-2.2h4.9v4.9
	c-1.3,1.2-3.1,1.8-4.8,1.8c-3.1,0.1-5.8-2.3-5.9-5.4C578,291.6,578,291.4,578,291.3z"/>
<path d="M590.3,298.5c1.1-0.1,1.7-0.7,1.6-1.6h-1v-2.6h2.6v2.2c0,2.1-1.1,3-3,3L590.3,298.5z"/>
<path d="M599.8,285.6h2.7l2.3,7.7l2.5-7.7h2.1l2.5,7.7l2.3-7.7h2.6l-3.9,11.4H611l-2.6-7.4l-2.6,7.4h-2.2L599.8,285.6z"/>
<path d="M618.4,285.1h2.6v2.2h-2.6V285.1z M618.5,288.2h2.5v8.7h-2.5V288.2z"/>
<path d="M623.5,285.6h8.6v2.3H626v2.4h5.4v2.3H626v4.4h-2.5V285.6z"/>
<path d="M634,285.1h2.6v2.2H634V285.1z M634,288.2h2.5v8.7H634V288.2z"/>
<path d="M646.5,64.4L646.5,64.4c0-2,1.5-3.6,3.5-3.6c0.1,0,0.1,0,0.2,0c1,0,2,0.3,2.8,1.1l-1,1.1c-0.5-0.5-1.1-0.8-1.8-0.8
	c-1.1,0-2,1-2,2.1c0,0,0,0,0,0l0,0c-0.1,1.1,0.8,2.1,2,2.2c0,0,0,0,0,0c0.7,0,1.4-0.3,1.8-0.8l1,1c-1.3,1.5-3.7,1.7-5.2,0.3
	C646.9,66.5,646.5,65.5,646.5,64.4L646.5,64.4z"/>
<path d="M653.9,66v-3.5h1.5v3c0,0.7,0.3,1.1,0.9,1.1s1-0.4,1-1.1v-3h1.5v5.4h-1.5v-0.8c-0.3,0.5-0.9,0.9-1.6,0.9
	c-1,0.1-1.8-0.7-1.9-1.6C653.9,66.3,653.9,66.1,653.9,66z"/>
<path d="M659.8,67.2l0.7-1c0.5,0.4,1.1,0.6,1.7,0.6c0.4,0,0.6-0.2,0.6-0.4l0,0c0-0.3-0.5-0.4-1.1-0.6c-0.8-0.2-1.6-0.6-1.6-1.6l0,0
	c0-1,0.8-1.7,1.8-1.7c0.1,0,0.1,0,0.2,0c0.7,0,1.4,0.2,2,0.6l-0.6,1.1c-0.4-0.3-0.9-0.5-1.5-0.5c-0.4,0-0.6,0.2-0.6,0.4l0,0
	c0,0.3,0.5,0.4,1.1,0.6c0.8,0.2,1.6,0.6,1.6,1.6l0,0c0,1.2-0.9,1.7-2,1.7C661.3,68,660.5,67.7,659.8,67.2z"/>
<path d="M665.4,66.4v-2.5h-0.6v-1.3h0.6v-1.4h1.5v1.4h1.3v1.3h-1.3v2.3c0,0.3,0.2,0.5,0.5,0.5c0.3,0,0.5-0.1,0.8-0.2v1.2
	c-0.4,0.2-0.8,0.3-1.2,0.3C666,68,665.4,67.6,665.4,66.4z"/>
<path d="M668.9,65.3L668.9,65.3c0-1.6,1.3-2.8,2.8-2.8c0,0,0.1,0,0.1,0c1.5-0.1,2.8,1.1,2.9,2.7c0,0,0,0.1,0,0.1l0,0
	c-0.1,1.6-1.5,2.8-3.1,2.7C670.1,67.9,669,66.7,668.9,65.3L668.9,65.3z M673.2,65.3L673.2,65.3c0-0.8-0.6-1.4-1.4-1.5c0,0,0,0-0.1,0
	c-0.8,0-1.4,0.6-1.4,1.4c0,0,0,0.1,0,0.1l0,0c0,0.8,0.6,1.4,1.4,1.5c0,0,0,0,0.1,0C672.5,66.7,673.2,66.1,673.2,65.3
	C673.2,65.3,673.2,65.3,673.2,65.3z"/>
<path d="M675.8,62.6h1.5v0.8c0.3-0.5,0.9-0.9,1.6-0.9c0.6,0,1.2,0.3,1.5,0.8c0.4-0.5,1.1-0.9,1.8-0.8c1.1,0,1.8,0.7,1.8,2v3.5h-1.6
	v-3c0-0.7-0.3-1.1-0.9-1.1s-0.9,0.4-0.9,1.1v3h-1.5v-3c0-0.7-0.3-1.1-0.9-1.1s-0.9,0.4-0.9,1.1v3h-1.5L675.8,62.6z"/>
<path d="M685,65.3L685,65.3c-0.1-1.5,1.1-2.7,2.5-2.8c0,0,0.1,0,0.1,0c1.4,0,2.6,1.2,2.6,2.6c0,0.1,0,0.2,0,0.3c0,0.1,0,0.3,0,0.4
	h-3.7c0.1,0.6,0.7,1.1,1.3,1.1c0.5,0,1-0.2,1.3-0.6l0.9,0.8c-1,1.2-2.8,1.4-4,0.4C685.4,66.9,685,66.1,685,65.3L685,65.3z
	 M688.8,64.8c-0.1-0.7-0.5-1.1-1.1-1.1c-0.6,0-1.1,0.5-1.2,1.1H688.8z"/>
<path d="M691.4,62.6h1.5v1.1c0.2-0.7,0.9-1.2,1.7-1.2V64h-0.1c-1,0-1.6,0.6-1.6,1.9v2h-1.5V62.6z"/>
<path d="M654.4,78.9l0.9-1.1c0.6,0.5,1.3,0.8,2.1,0.8c0.6,0,1-0.2,1-0.7l0,0c0-0.4-0.2-0.6-1.4-0.9c-1.4-0.4-2.3-0.8-2.3-2.1l0,0
	c0-1.2,1.1-2.2,2.3-2.1c0.1,0,0.1,0,0.2,0c0.9,0,1.9,0.3,2.6,0.9l-0.8,1.2c-0.5-0.4-1.2-0.6-1.8-0.7c-0.6,0-0.9,0.3-0.9,0.6l0,0
	c0,0.5,0.3,0.6,1.5,0.9c1.4,0.4,2.2,0.9,2.2,2.1l0,0c0,1.4-1.1,2.2-2.6,2.2C656.2,80,655.2,79.6,654.4,78.9z"/>
<path d="M660.9,77.3L660.9,77.3c-0.1-1.5,1.1-2.7,2.5-2.8c0,0,0.1,0,0.1,0c1.4,0,2.6,1.2,2.6,2.6c0,0.1,0,0.2,0,0.3
	c0,0.1,0,0.3,0,0.4h-3.8c0.1,0.6,0.7,1.1,1.3,1.1c0.5,0,1-0.2,1.3-0.6l0.9,0.8c-1,1.2-2.8,1.4-4,0.4
	C661.2,78.9,660.9,78.1,660.9,77.3L660.9,77.3z M664.7,76.8c0-0.6-0.5-1.1-1.1-1.1c-0.6,0-1.1,0.5-1.1,1.1H664.7z"/>
<path d="M667.3,74.6h1.5v1.1c0.2-0.7,0.9-1.2,1.7-1.2V76h-0.1c-1,0-1.6,0.6-1.6,1.9v2h-1.5L667.3,74.6z"/>
<path d="M671,74.6h1.6l1.2,3.6l1.2-3.6h1.6l-2.1,5.4h-1.4L671,74.6z"/>
<path d="M676.9,77.3L676.9,77.3c-0.1-1.5,1.1-2.7,2.5-2.8c0,0,0.1,0,0.1,0c1.4,0,2.6,1.2,2.6,2.6c0,0.1,0,0.2,0,0.3
	c0,0.1,0,0.3,0,0.4h-3.8c0.1,0.6,0.7,1.1,1.3,1.1c0.5,0,1-0.2,1.3-0.6l0.9,0.8c-1,1.2-2.8,1.4-4,0.4
	C677.2,78.9,676.9,78.1,676.9,77.3L676.9,77.3z M680.7,76.8c0-0.6-0.5-1.1-1.1-1.1c-0.6,0-1.1,0.5-1.2,1.1H680.7z"/>
<path d="M683.3,74.6h1.5v1.1c0.2-0.7,0.9-1.2,1.7-1.2V76h-0.1c-1,0-1.6,0.6-1.6,1.9v2h-1.5L683.3,74.6z"/>
<path d="M657.1,84.9h1.5v5.6h3.5v1.4h-5L657.1,84.9z"/>
<path d="M662.8,89.3L662.8,89.3c0-1.6,1.3-2.9,2.9-2.9c1.6,0,2.9,1.3,2.9,2.9l0,0c0,1.6-1.3,2.9-2.9,2.9
	C664.1,92.2,662.8,90.9,662.8,89.3z M667.1,89.3L667.1,89.3c0-0.8-0.6-1.4-1.4-1.5c0,0,0,0-0.1,0c-0.8,0-1.4,0.6-1.4,1.3
	c0,0,0,0.1,0,0.1l0,0c0,0.8,0.6,1.4,1.4,1.5c0,0,0,0,0.1,0c0.8,0,1.4-0.6,1.4-1.3C667.1,89.3,667.1,89.3,667.1,89.3z"/>
<path d="M669.7,93l0.5-1.1c0.5,0.3,1.2,0.5,1.8,0.5c1,0,1.5-0.5,1.5-1.5v-0.3c-0.4,0.6-1.1,0.9-1.8,0.9c-1.3,0-2.4-1-2.4-2.3
	c0-0.1,0-0.1,0-0.2l0,0c-0.1-1.3,0.9-2.4,2.2-2.5c0.1,0,0.1,0,0.2,0c0.7,0,1.3,0.3,1.7,0.8v-0.7h1.5v4.2c0.1,0.8-0.2,1.5-0.7,2.1
	c-0.6,0.5-1.5,0.8-2.3,0.7C671.3,93.6,670.5,93.4,669.7,93z M673.6,89L673.6,89c-0.1-0.7-0.7-1.3-1.4-1.2c-0.6,0.1-1.1,0.6-1.2,1.2
	l0,0c0,0.7,0.5,1.2,1.2,1.2c0,0,0.1,0,0.1,0C673,90.3,673.6,89.7,673.6,89C673.6,89,673.6,89,673.6,89z"/>
<path d="M676.5,84.6h1.6V86h-1.6V84.6z M676.5,86.6h1.5v5.4h-1.5V86.6z"/>
<path d="M679.2,89.3L679.2,89.3c0-1.5,1.2-2.8,2.7-2.8c0,0,0.1,0,0.1,0c0.8,0,1.6,0.3,2.1,0.9l-0.9,1c-0.3-0.4-0.7-0.6-1.2-0.6
	c-0.8,0-1.3,0.7-1.3,1.4c0,0,0,0,0,0l0,0c-0.1,0.8,0.5,1.4,1.3,1.5c0,0,0.1,0,0.1,0c0.5,0,0.9-0.2,1.2-0.6l0.9,0.9
	c-0.5,0.7-1.3,1-2.2,1c-1.5,0-2.8-1.2-2.8-2.7C679.2,89.3,679.2,89.3,679.2,89.3z"/>
<path d="M641.8,143.9h1.6v5.6h3.5v1.4h-5L641.8,143.9z"/>
<path d="M647.5,148.3L647.5,148.3c0-1.6,1.3-2.9,2.9-2.9c1.6,0,2.9,1.3,2.9,2.9l0,0c0,1.6-1.3,2.9-2.9,2.9
	C648.8,151.2,647.5,149.9,647.5,148.3z M651.8,148.3L651.8,148.3c0-0.8-0.6-1.4-1.4-1.5c0,0,0,0-0.1,0c-0.8,0-1.4,0.6-1.4,1.3
	c0,0,0,0.1,0,0.1l0,0c0,0.8,0.6,1.4,1.4,1.5c0,0,0,0,0.1,0c0.8,0,1.4-0.6,1.4-1.3C651.8,148.3,651.8,148.3,651.8,148.3z"/>
<path d="M654.5,143.9h3.2c0.7,0,1.5,0.2,2,0.7c0.4,0.4,0.6,1,0.6,1.6l0,0c0,1-0.6,1.9-1.5,2.2l1.7,2.5h-1.8l-1.5-2.2H656v2.2h-1.5
	L654.5,143.9z M657.6,147.3c0.8,0,1.2-0.4,1.2-1l0,0c0-0.7-0.5-1-1.2-1h-1.5v2H657.6z"/>
<path d="M661.3,149.4L661.3,149.4c0-1.2,0.9-1.7,2.2-1.7c0.4,0,0.9,0.1,1.3,0.2v-0.1c0-0.6-0.4-1-1.2-1c-0.5,0-1,0.1-1.5,0.3
	l-0.4-1.2c0.7-0.3,1.4-0.4,2.1-0.4c0.7-0.1,1.3,0.2,1.8,0.6c0.4,0.5,0.6,1.1,0.6,1.7v3.1h-1.5v-0.5c-0.4,0.5-1,0.7-1.6,0.7
	c-0.9,0.1-1.7-0.6-1.8-1.5C661.3,149.5,661.3,149.5,661.3,149.4z M664.8,149v-0.3c-0.3-0.1-0.7-0.2-1-0.2c-0.7,0-1,0.3-1,0.7l0,0
	c0,0.4,0.3,0.6,0.8,0.6C664.3,150,664.8,149.6,664.8,149L664.8,149z"/>
<path d="M667.1,143.9h1.7l1.5,4.7l1.6-4.8h1.3l1.6,4.8l1.5-4.7h1.6l-2.4,7H674l-1.6-4.5l-1.6,4.6h-1.3L667.1,143.9z"/>
<path d="M680.4,143.9h1.4l3,7h-1.6l-0.6-1.6h-3l-0.6,1.6h-1.5L680.4,143.9z M682,148l-0.9-2.3l-0.9,2.3H682z"/>
<path d="M685.9,143.9h1.4l3.3,4.3v-4.3h1.5v7h-1.3l-3.4-4.5v4.4h-1.5L685.9,143.9z"/>
<path d="M694.1,144.6h-0.9v-0.6h2.5v0.6h-0.9v2.4h-0.7V144.6z M696.4,143.9h0.7l0.8,1.3l0.8-1.3h0.7v3.1h-0.7v-2.1l-0.8,1.3h-0.1
	l-0.8-1.3v2.1h-0.7L696.4,143.9z"/>
<path d="M654.4,155.9h1.7l1.8,3l1.8-3h1.7v7h-1.5v-4.5l-2,3l0,0l-2-3v4.5h-1.5V155.9z"/>
<path d="M662.5,161.4L662.5,161.4c0-1.2,0.9-1.7,2.2-1.7c0.4,0,0.9,0.1,1.3,0.2v-0.1c0-0.6-0.4-1-1.2-1c-0.5,0-1,0.1-1.5,0.3
	l-0.4-1.2c0.7-0.3,1.4-0.4,2.1-0.4c0.7-0.1,1.3,0.2,1.8,0.6c0.4,0.5,0.6,1.1,0.6,1.7v3.1H666v-0.5c-0.4,0.5-1,0.7-1.6,0.7
	c-0.9,0.1-1.7-0.6-1.8-1.5C662.5,161.5,662.5,161.5,662.5,161.4z M666,161v-0.3c-0.3-0.1-0.7-0.2-1-0.2c-0.7,0-1,0.3-1,0.7l0,0
	c0,0.4,0.3,0.6,0.8,0.6C665.5,162,666,161.6,666,161L666,161z"/>
<path d="M668.4,162.2l0.6-1c0.5,0.4,1.1,0.6,1.7,0.6c0.4,0,0.6-0.2,0.6-0.4l0,0c0-0.3-0.5-0.4-1.1-0.6c-0.8-0.2-1.6-0.6-1.6-1.6l0,0
	c0-1,0.8-1.7,1.8-1.7c0.1,0,0.1,0,0.2,0c0.7,0,1.4,0.2,2,0.6l-0.6,1c-0.4-0.3-0.9-0.5-1.5-0.5c-0.4,0-0.6,0.2-0.6,0.4l0,0
	c0,0.3,0.5,0.4,1.1,0.6c0.8,0.2,1.6,0.6,1.6,1.6l0,0c0,1.2-0.9,1.7-2,1.7C669.9,163,669,162.7,668.4,162.2z"/>
<path d="M673.9,161.4v-2.5h-0.6v-1.3h0.6v-1.4h1.5v1.4h1.3v1.3h-1.3v2.3c0,0.4,0.2,0.5,0.5,0.5c0.3,0,0.5-0.1,0.8-0.2v1.2
	c-0.4,0.2-0.8,0.3-1.2,0.3C674.6,163,673.9,162.6,673.9,161.4z"/>
<path d="M677.4,160.3L677.4,160.3c-0.1-1.5,1.1-2.7,2.5-2.8c0,0,0.1,0,0.1,0c1.4,0,2.6,1.2,2.6,2.6c0,0.1,0,0.2,0,0.3
	c0,0.1,0,0.3,0,0.4H679c0.1,0.6,0.7,1.1,1.3,1.1c0.5,0,1-0.2,1.3-0.6l0.9,0.8c-1,1.2-2.8,1.4-4,0.4
	C677.8,161.9,677.4,161.1,677.4,160.3L677.4,160.3z M681.2,159.8c0-0.6-0.5-1.1-1.1-1.1c-0.6,0-1.1,0.5-1.2,1.1H681.2z"/>
<path d="M683.8,157.6h1.6v1.1c0.2-0.7,0.9-1.2,1.7-1.2v1.6H687c-1,0-1.6,0.6-1.6,1.9v2h-1.5L683.8,157.6z"/>
<path d="M76.8,144.9h1.6v5.6h3.5v1.4h-5L76.8,144.9z"/>
<path d="M82.5,149.3L82.5,149.3c0-1.6,1.3-2.9,2.9-2.9s2.9,1.3,2.9,2.9l0,0c0,1.6-1.3,2.9-2.9,2.9S82.5,150.9,82.5,149.3z
	 M86.8,149.3L86.8,149.3c0-0.8-0.6-1.5-1.3-1.5c0,0,0,0-0.1,0c-0.8,0-1.4,0.6-1.4,1.3c0,0,0,0.1,0,0.1l0,0c0,0.8,0.6,1.5,1.3,1.5
	c0,0,0,0,0.1,0c0.8,0,1.4-0.6,1.4-1.3C86.8,149.3,86.8,149.3,86.8,149.3z"/>
<path d="M89.5,144.9h3.2c0.7,0,1.5,0.2,2,0.7c0.4,0.4,0.6,1,0.6,1.6l0,0c0,1-0.6,1.9-1.5,2.2l1.7,2.5h-1.8l-1.5-2.2H91v2.2h-1.5
	V144.9z M92.6,148.3c0.8,0,1.2-0.4,1.2-1l0,0c0-0.7-0.5-1-1.2-1h-1.5v2H92.6z"/>
<path d="M96.3,150.4L96.3,150.4c0-1.2,0.9-1.7,2.2-1.7c0.4,0,0.9,0.1,1.3,0.2v-0.1c0-0.6-0.4-1-1.2-1c-0.5,0-1,0.1-1.5,0.3l-0.4-1.2
	c0.7-0.3,1.4-0.4,2.1-0.4c0.7-0.1,1.3,0.2,1.8,0.6c0.4,0.5,0.6,1.1,0.6,1.7v3.1h-1.5v-0.5c-0.4,0.5-1,0.7-1.6,0.7
	c-0.9,0.1-1.7-0.6-1.8-1.5C96.3,150.5,96.3,150.5,96.3,150.4z M99.8,150v-0.3c-0.3-0.1-0.7-0.2-1-0.2c-0.7,0-1,0.3-1,0.7l0,0
	c0,0.4,0.3,0.6,0.8,0.6C99.3,151,99.8,150.6,99.8,150L99.8,150z"/>
<path d="M102.1,144.9h1.7l1.4,4.7l1.6-4.8h1.3l1.6,4.8l1.4-4.7h1.6l-2.4,7H109l-1.6-4.5l-1.6,4.6h-1.3L102.1,144.9z"/>
<path d="M115.4,144.9h1.4l3,7h-1.6l-0.6-1.6h-3l-0.6,1.6h-1.5L115.4,144.9z M117,149l-0.9-2.3l-0.9,2.3H117z"/>
<path d="M120.9,144.9h1.4l3.3,4.3v-4.3h1.5v7h-1.3l-3.4-4.5v4.4h-1.5L120.9,144.9z"/>
<path d="M129.1,145.6h-0.9v-0.6h2.5v0.6h-0.9v2.4h-0.7V145.6z M131.4,144.9h0.7l0.8,1.3l0.8-1.3h0.7v3.1h-0.7v-2.1l-0.9,1.3h-0.1
	l-0.9-1.3v2.1h-0.7L131.4,144.9z"/>
<path d="M89.4,156.9H91l1.8,3l1.8-3h1.7v7h-1.5v-4.5l-2,3l0,0l-2-3v4.5h-1.5V156.9z"/>
<path d="M97.5,162.4L97.5,162.4c0-1.2,0.9-1.7,2.2-1.7c0.4,0,0.9,0.1,1.3,0.2v-0.1c0-0.6-0.4-1-1.2-1c-0.5,0-1,0.1-1.5,0.3l-0.4-1.2
	c0.7-0.3,1.4-0.4,2.1-0.4c0.7-0.1,1.3,0.2,1.8,0.6c0.4,0.5,0.6,1.1,0.6,1.7v3.1H101v-0.5c-0.4,0.5-1,0.7-1.6,0.7
	c-0.9,0.1-1.7-0.6-1.8-1.5C97.5,162.5,97.5,162.5,97.5,162.4z M101,162v-0.3c-0.3-0.1-0.7-0.2-1-0.2c-0.7,0-1,0.3-1,0.7l0,0
	c0,0.4,0.3,0.6,0.8,0.6C100.5,163,101,162.6,101,162L101,162z"/>
<path d="M103.4,163.2l0.6-1c0.5,0.4,1.1,0.6,1.7,0.6c0.4,0,0.6-0.2,0.6-0.4l0,0c0-0.3-0.5-0.4-1.1-0.6c-0.8-0.2-1.6-0.6-1.6-1.6l0,0
	c0-1,0.8-1.7,1.8-1.7c0.1,0,0.1,0,0.2,0c0.7,0,1.4,0.2,2,0.6l-0.6,1c-0.4-0.3-0.9-0.5-1.4-0.5c-0.4,0-0.6,0.2-0.6,0.4l0,0
	c0,0.3,0.5,0.4,1.1,0.6c0.8,0.2,1.6,0.6,1.6,1.6l0,0c0,1.2-0.9,1.7-2,1.7C104.9,164,104.1,163.7,103.4,163.2z"/>
<path d="M108.9,162.4v-2.5h-0.6v-1.3h0.6v-1.4h1.5v1.4h1.3v1.3h-1.3v2.3c0,0.4,0.2,0.5,0.5,0.5c0.3,0,0.5-0.1,0.8-0.2v1.2
	c-0.4,0.2-0.8,0.3-1.2,0.3C109.6,164,108.9,163.6,108.9,162.4z"/>
<path d="M112.4,161.3L112.4,161.3c-0.1-1.5,1.1-2.7,2.5-2.8c0,0,0.1,0,0.1,0c1.4,0,2.6,1.2,2.6,2.6c0,0.1,0,0.2,0,0.3
	c0,0.1,0,0.3,0,0.4H114c0.1,0.6,0.7,1.1,1.3,1.1c0.5,0,1-0.2,1.3-0.6l0.9,0.8c-1,1.2-2.8,1.4-4,0.4
	C112.8,162.9,112.4,162.1,112.4,161.3L112.4,161.3z M116.2,160.8c0-0.6-0.5-1.1-1.1-1.1c-0.6,0-1.1,0.5-1.2,1.1H116.2z"/>
<path d="M118.8,158.6h1.6v1.1c0.2-0.7,0.9-1.2,1.7-1.2v1.6H122c-1,0-1.6,0.6-1.6,1.9v2h-1.5L118.8,158.6z"/>
<path class="st8" d="M650.2,223.9h3.2c0.7,0,1.3,0.2,1.8,0.6c0.3,0.3,0.5,0.7,0.5,1.2l0,0c0,0.6-0.3,1.2-0.9,1.5
	c0.8,0.2,1.3,0.9,1.3,1.7l0,0c0,1.3-1,1.9-2.6,1.9h-3.3L650.2,223.9z M653.1,226.8c0.7,0,1.1-0.2,1.1-0.7l0,0c0-0.5-0.4-0.7-1-0.7
	h-1.5v1.5L653.1,226.8z M653.5,229.6c0.7,0,1.1-0.2,1.1-0.8l0,0c0-0.5-0.3-0.8-1.1-0.8h-1.8v1.5L653.5,229.6z"/>
<path class="st8" d="M656.9,229.4L656.9,229.4c0-1.2,0.9-1.7,2.2-1.7c0.4,0,0.9,0.1,1.3,0.2v-0.1c0-0.6-0.4-1-1.2-1
	c-0.5,0-1,0.1-1.5,0.3l-0.4-1.2c0.7-0.3,1.4-0.4,2.1-0.4c0.7-0.1,1.3,0.2,1.8,0.6c0.4,0.5,0.6,1.1,0.6,1.7v3.1h-1.5v-0.5
	c-0.4,0.5-1,0.7-1.6,0.7c-0.9,0.1-1.7-0.5-1.8-1.4C656.9,229.5,656.9,229.5,656.9,229.4z M660.4,229v-0.3c-0.3-0.1-0.7-0.2-1-0.2
	c-0.7,0-1,0.3-1,0.7l0,0c0,0.4,0.3,0.6,0.8,0.6C659.9,230,660.4,229.6,660.4,229L660.4,229z"/>
<path class="st8" d="M662.9,228.3L662.9,228.3c0-1.5,1.2-2.8,2.7-2.8c0,0,0.1,0,0.1,0c0.8,0,1.6,0.3,2.1,0.9l-0.9,1
	c-0.3-0.4-0.7-0.6-1.2-0.6c-0.8,0-1.3,0.7-1.3,1.4c0,0,0,0,0,0l0,0c-0.1,0.8,0.5,1.4,1.3,1.5c0,0,0.1,0,0.1,0c0.5,0,0.9-0.2,1.2-0.6
	l0.9,0.9c-0.5,0.7-1.3,1-2.2,1c-1.5,0-2.8-1.2-2.8-2.7C662.9,228.3,662.9,228.3,662.9,228.3z"/>
<path class="st8" d="M668.9,223.6h1.5v3.9l1.8-2h1.8l-2,2.1l2.1,3.2h-1.7l-1.4-2.2l-0.5,0.6v1.6h-1.5L668.9,223.6z"/>
<path class="st8" d="M674.8,223.6h1.5v2.7c0.3-0.5,0.9-0.9,1.6-0.9c1,0,1.8,0.7,1.8,1.7c0,0.1,0,0.2,0,0.3v3.5h-1.5v-3
	c0-0.7-0.3-1.1-0.9-1.1s-1,0.4-1,1.1v3h-1.5L674.8,223.6z"/>
<path class="st8" d="M680.7,229.4L680.7,229.4c0-1.2,0.9-1.7,2.2-1.7c0.4,0,0.9,0.1,1.3,0.2v-0.1c0-0.6-0.4-1-1.2-1
	c-0.5,0-1,0.1-1.5,0.3l-0.4-1.2c0.7-0.3,1.4-0.4,2.1-0.4c0.7-0.1,1.3,0.2,1.8,0.6c0.4,0.5,0.6,1.1,0.6,1.7v3.1h-1.5v-0.5
	c-0.4,0.5-1,0.7-1.6,0.7c-0.9,0.1-1.7-0.6-1.8-1.5C680.7,229.5,680.7,229.5,680.7,229.4z M684.2,229v-0.3c-0.3-0.1-0.7-0.2-1-0.2
	c-0.7,0-1,0.3-1,0.7l0,0c0,0.4,0.3,0.6,0.8,0.6C683.7,230,684.2,229.6,684.2,229L684.2,229z"/>
<path class="st8" d="M686.9,229v-3.5h1.5v3c0,0.7,0.3,1.1,0.9,1.1s1-0.4,1-1.1v-3h1.5v5.4h-1.5v-0.8c-0.3,0.5-0.9,0.9-1.6,0.9
	c-1,0-1.8-0.7-1.8-1.7C686.9,229.2,686.9,229.1,686.9,229z"/>
<path class="st8" d="M693.2,223.6h1.5v7.3h-1.5V223.6z"/>
<path class="st8" d="M652.8,235.9h1.5v7h-1.5V235.9z"/>
<path class="st8" d="M656.1,235.9h2.8c1.3-0.2,2.5,0.8,2.7,2.1c0,0.1,0,0.2,0,0.3l0,0c0,1.6-1.3,2.5-2.8,2.5h-1.2v2.1h-1.5V235.9z
	 M658.8,239.4c0.6,0.1,1.1-0.3,1.2-0.9c0,0,0-0.1,0-0.1l0,0c0-0.7-0.5-1.1-1.2-1.1h-1.2v2.1L658.8,239.4z"/>
<path class="st8" d="M665.3,241.9l0.9-1.1c0.6,0.5,1.3,0.8,2.1,0.9c0.6,0,1-0.2,1-0.7l0,0c0-0.4-0.2-0.6-1.4-0.9
	c-1.4-0.4-2.3-0.8-2.3-2.1l0,0c0-1.2,1-2.2,2.2-2.1c0.1,0,0.1,0,0.2,0c0.9,0,1.9,0.3,2.6,0.9l-0.8,1.1c-0.5-0.4-1.2-0.6-1.8-0.7
	c-0.6,0-0.9,0.3-0.9,0.6l0,0c0,0.5,0.3,0.6,1.5,0.9c1.4,0.4,2.2,0.9,2.2,2.1l0,0c0,1.4-1.1,2.2-2.6,2.2
	C667.1,243,666.1,242.6,665.3,241.9z"/>
<path class="st8" d="M672.2,241.4v-2.5h-0.6v-1.3h0.6v-1.4h1.5v1.4h1.3v1.3h-1.3v2.3c0,0.4,0.2,0.5,0.5,0.5c0.3,0,0.5-0.1,0.8-0.2
	v1.2c-0.4,0.2-0.8,0.3-1.2,0.3C672.8,243,672.2,242.6,672.2,241.4z"/>
<path class="st8" d="M675.8,241.4L675.8,241.4c0-1.2,0.9-1.7,2.2-1.7c0.4,0,0.9,0.1,1.3,0.2v-0.1c0-0.6-0.4-1-1.1-1
	c-0.5,0-1,0.1-1.5,0.3l-0.4-1.2c0.7-0.3,1.4-0.4,2.1-0.4c0.7-0.1,1.3,0.2,1.8,0.6c0.4,0.5,0.6,1.1,0.6,1.7v3.1h-1.5v-0.5
	c-0.4,0.5-1,0.7-1.6,0.7c-0.9,0.1-1.7-0.6-1.8-1.5C675.8,241.5,675.8,241.5,675.8,241.4z M679.2,241v-0.3c-0.3-0.1-0.7-0.2-1-0.2
	c-0.6,0-1,0.3-1,0.7l0,0c0,0.4,0.3,0.6,0.8,0.6C678.8,242,679.2,241.6,679.2,241L679.2,241z"/>
<path class="st8" d="M681.8,240.3L681.8,240.3c0-1.5,1.2-2.8,2.7-2.8c0,0,0.1,0,0.1,0c0.8,0,1.6,0.3,2.1,0.9l-0.9,1
	c-0.3-0.4-0.7-0.6-1.2-0.6c-0.8,0-1.3,0.7-1.3,1.4c0,0,0,0,0,0l0,0c-0.1,0.8,0.5,1.4,1.3,1.5c0,0,0.1,0,0.1,0c0.5,0,0.9-0.2,1.2-0.6
	l0.9,0.9c-0.5,0.7-1.3,1-2.2,1c-1.5,0-2.8-1.2-2.8-2.7C681.7,240.3,681.7,240.3,681.8,240.3z"/>
<path class="st8" d="M687.7,235.6h1.5v3.9l1.8-2h1.8l-2,2.1l2.1,3.2h-1.7l-1.4-2.2l-0.5,0.6v1.6h-1.5L687.7,235.6z"/>
<path class="st8" d="M414.2,223.9h3.2c0.7,0,1.3,0.2,1.8,0.6c0.3,0.3,0.5,0.7,0.5,1.2l0,0c0,0.6-0.3,1.2-0.9,1.5
	c0.8,0.2,1.3,0.9,1.3,1.7l0,0c0,1.3-1,1.9-2.6,1.9h-3.3L414.2,223.9z M417.1,226.8c0.7,0,1.1-0.2,1.1-0.7l0,0c0-0.5-0.4-0.7-1-0.7
	h-1.5v1.5L417.1,226.8z M417.5,229.6c0.7,0,1.1-0.2,1.1-0.8l0,0c0-0.5-0.4-0.8-1.1-0.8h-1.8v1.5L417.5,229.6z"/>
<path class="st8" d="M420.9,229.4L420.9,229.4c0-1.2,0.9-1.7,2.2-1.7c0.4,0,0.9,0.1,1.3,0.2v-0.1c0-0.6-0.4-1-1.1-1
	c-0.5,0-1,0.1-1.5,0.3l-0.4-1.2c0.7-0.3,1.4-0.4,2.1-0.4c0.7-0.1,1.3,0.2,1.8,0.6c0.4,0.5,0.6,1.1,0.6,1.7v3.1h-1.4v-0.5
	c-0.4,0.5-1,0.7-1.6,0.7c-0.9,0.1-1.7-0.5-1.8-1.4C420.9,229.5,420.9,229.5,420.9,229.4z M424.4,229v-0.3c-0.3-0.1-0.7-0.2-1-0.2
	c-0.6,0-1,0.3-1,0.7l0,0c0,0.4,0.3,0.6,0.8,0.6C423.9,230,424.4,229.6,424.4,229L424.4,229z"/>
<path class="st8" d="M426.9,228.3L426.9,228.3c0-1.5,1.2-2.8,2.7-2.8c0,0,0.1,0,0.1,0c0.8,0,1.6,0.3,2.1,0.9l-0.9,1
	c-0.3-0.4-0.7-0.6-1.2-0.6c-0.8,0-1.3,0.7-1.3,1.4c0,0,0,0,0,0l0,0c-0.1,0.8,0.5,1.4,1.3,1.5c0,0,0.1,0,0.1,0c0.5,0,0.9-0.2,1.2-0.6
	l0.9,0.9c-0.5,0.7-1.3,1-2.2,1c-1.5,0-2.8-1.2-2.8-2.7C426.9,228.3,426.9,228.3,426.9,228.3z"/>
<path class="st8" d="M432.9,223.6h1.5v3.9l1.8-2h1.8l-2,2.1l2.1,3.2h-1.7l-1.4-2.2l-0.5,0.6v1.6h-1.5L432.9,223.6z"/>
<path class="st8" d="M438.8,223.6h1.5v2.7c0.3-0.5,0.9-0.9,1.6-0.9c1,0,1.8,0.7,1.8,1.7c0,0.1,0,0.2,0,0.3v3.5h-1.5v-3
	c0-0.7-0.3-1.1-0.9-1.1s-1,0.4-1,1.1v3h-1.5V223.6z"/>
<path class="st8" d="M444.7,229.4L444.7,229.4c0-1.2,0.9-1.7,2.1-1.7c0.4,0,0.9,0.1,1.3,0.2v-0.1c0-0.6-0.4-1-1.1-1
	c-0.5,0-1,0.1-1.5,0.3l-0.4-1.2c0.7-0.3,1.4-0.4,2.1-0.4c0.7-0.1,1.3,0.2,1.8,0.6c0.4,0.5,0.6,1.1,0.6,1.7v3.1h-1.5v-0.5
	c-0.4,0.5-1,0.7-1.6,0.7c-0.9,0.1-1.7-0.6-1.8-1.5C444.7,229.5,444.7,229.5,444.7,229.4z M448.2,229v-0.3c-0.3-0.1-0.7-0.2-1-0.2
	c-0.6,0-1,0.3-1,0.7l0,0c0,0.4,0.3,0.6,0.8,0.6C447.7,230,448.2,229.6,448.2,229L448.2,229z"/>
<path class="st8" d="M450.9,229v-3.5h1.5v3c0,0.7,0.3,1.1,0.9,1.1s1-0.4,1-1.1v-3h1.5v5.4h-1.5v-0.8c-0.3,0.5-0.9,0.9-1.6,0.9
	c-1,0-1.8-0.7-1.8-1.7C450.9,229.2,450.9,229.1,450.9,229z"/>
<path class="st8" d="M457.2,223.6h1.5v7.3h-1.5V223.6z"/>
<path class="st8" d="M416.8,235.9h1.5v7h-1.5V235.9z"/>
<path class="st8" d="M420.1,235.9h2.9c1.3-0.2,2.5,0.8,2.7,2.1c0,0.1,0,0.2,0,0.3l0,0c0,1.6-1.3,2.5-2.8,2.5h-1.2v2.1h-1.5V235.9z
	 M422.8,239.4c0.6,0.1,1.1-0.3,1.2-0.9c0,0,0-0.1,0-0.1l0,0c0-0.7-0.5-1.1-1.2-1.1h-1.2v2.1L422.8,239.4z"/>
<path class="st8" d="M429.3,241.9l0.9-1.1c0.6,0.5,1.3,0.8,2.1,0.9c0.6,0,1-0.2,1-0.7l0,0c0-0.4-0.2-0.6-1.4-0.9
	c-1.4-0.4-2.3-0.8-2.3-2.1l0,0c0-1.2,1-2.2,2.2-2.1c0.1,0,0.1,0,0.2,0c0.9,0,1.9,0.3,2.6,0.9l-0.8,1.1c-0.5-0.4-1.2-0.6-1.8-0.7
	c-0.6,0-0.9,0.3-0.9,0.6l0,0c0,0.5,0.3,0.6,1.5,0.9c1.4,0.4,2.2,0.9,2.2,2.1l0,0c0,1.4-1.1,2.2-2.6,2.2
	C431.1,243,430.1,242.6,429.3,241.9z"/>
<path class="st8" d="M436.2,241.4v-2.5h-0.6v-1.3h0.6v-1.4h1.5v1.4h1.3v1.3h-1.3v2.3c0,0.4,0.2,0.5,0.5,0.5c0.3,0,0.5-0.1,0.8-0.2
	v1.2c-0.4,0.2-0.8,0.3-1.2,0.3C436.8,243,436.2,242.6,436.2,241.4z"/>
<path class="st8" d="M439.8,241.4L439.8,241.4c0-1.2,0.9-1.7,2.2-1.7c0.4,0,0.9,0.1,1.3,0.2v-0.1c0-0.6-0.4-1-1.1-1
	c-0.5,0-1,0.1-1.5,0.3l-0.4-1.2c0.7-0.3,1.4-0.4,2.1-0.4c0.7-0.1,1.3,0.2,1.8,0.6c0.4,0.5,0.6,1.1,0.6,1.7v3.1h-1.5v-0.5
	c-0.4,0.5-1,0.7-1.6,0.7c-0.9,0.1-1.7-0.6-1.8-1.5C439.8,241.5,439.8,241.5,439.8,241.4z M443.3,241v-0.3c-0.3-0.1-0.7-0.2-1-0.2
	c-0.6,0-1,0.3-1,0.7l0,0c0,0.4,0.3,0.6,0.8,0.6C442.8,242,443.2,241.6,443.3,241L443.3,241z"/>
<path class="st8" d="M445.8,240.3L445.8,240.3c0-1.5,1.2-2.8,2.7-2.8c0,0,0.1,0,0.1,0c0.8,0,1.6,0.3,2.1,0.9l-0.9,1
	c-0.3-0.4-0.7-0.6-1.2-0.6c-0.8,0-1.3,0.7-1.3,1.4c0,0,0,0,0,0l0,0c-0.1,0.8,0.5,1.4,1.3,1.5c0,0,0.1,0,0.1,0c0.5,0,0.9-0.2,1.2-0.6
	l0.9,0.9c-0.5,0.7-1.3,1-2.2,1c-1.5,0-2.8-1.2-2.8-2.7C445.7,240.3,445.7,240.3,445.8,240.3z"/>
<path class="st8" d="M451.7,235.6h1.5v3.9l1.8-2h1.8l-2,2.1l2.1,3.2h-1.7l-1.4-2.2l-0.5,0.6v1.6h-1.5L451.7,235.6z"/>
<path d="M83.4,71.4L83.4,71.4c0-2,1.5-3.6,3.5-3.6c0.1,0,0.1,0,0.2,0c1-0.1,2,0.3,2.8,1.1l-1,1.1c-0.5-0.5-1.1-0.8-1.8-0.8
	c-1.1,0-2,1-2,2.1c0,0,0,0,0,0l0,0c-0.1,1.1,0.8,2.1,2,2.2c0,0,0,0,0,0c0.7,0,1.4-0.3,1.8-0.8l1,1c-0.7,0.8-1.8,1.3-2.9,1.2
	c-1.9,0-3.6-1.5-3.6-3.5C83.4,71.5,83.4,71.5,83.4,71.4z"/>
<path d="M90.9,73v-3.5h1.5v3c0,0.7,0.3,1.1,0.9,1.1s1-0.4,1-1.1v-3h1.5v5.4h-1.5v-0.8C94,74.7,93.4,75,92.8,75
	c-1,0.1-1.8-0.7-1.9-1.6C90.9,73.3,90.9,73.1,90.9,73z"/>
<path d="M96.8,74.2l0.7-1c0.5,0.4,1.1,0.6,1.7,0.6c0.4,0,0.6-0.2,0.6-0.4l0,0c0-0.3-0.5-0.4-1.1-0.6c-0.8-0.2-1.6-0.6-1.6-1.6l0,0
	c0-1,0.8-1.7,1.8-1.7c0.1,0,0.1,0,0.2,0c0.7,0,1.4,0.2,2,0.6l-0.6,1.1c-0.4-0.3-0.9-0.5-1.4-0.5c-0.4,0-0.6,0.2-0.6,0.4l0,0
	c0,0.3,0.5,0.4,1.1,0.6c0.8,0.2,1.6,0.6,1.6,1.6l0,0c0,1.2-0.9,1.7-2.1,1.7C98.3,75,97.5,74.7,96.8,74.2z"/>
<path d="M102.4,73.4v-2.5h-0.6v-1.3h0.6v-1.4h1.5v1.4h1.3v1.3h-1.3v2.3c0,0.3,0.2,0.5,0.5,0.5c0.3,0,0.5-0.1,0.8-0.2v1.2
	c-0.4,0.2-0.8,0.3-1.2,0.3C103,75,102.4,74.6,102.4,73.4z"/>
<path d="M105.9,72.3L105.9,72.3c0-1.6,1.3-2.9,2.9-2.9s2.9,1.3,2.9,2.9l0,0c0,1.6-1.3,2.9-2.9,2.9S105.9,73.9,105.9,72.3z
	 M110.2,72.3L110.2,72.3c0-0.8-0.6-1.4-1.4-1.5c0,0,0,0-0.1,0c-0.8,0-1.4,0.6-1.4,1.4c0,0,0,0.1,0,0.1l0,0c0,0.8,0.6,1.4,1.4,1.5
	c0,0,0,0,0.1,0C109.5,73.7,110.2,73.1,110.2,72.3C110.2,72.3,110.2,72.3,110.2,72.3z"/>
<path d="M112.8,69.6h1.5v0.8c0.4-0.5,0.9-0.9,1.6-0.9c0.6,0,1.2,0.3,1.5,0.8c0.4-0.5,1.1-0.9,1.8-0.8c1.1,0,1.8,0.7,1.8,2v3.5h-1.5
	v-3c0-0.7-0.3-1.1-0.9-1.1s-0.9,0.4-0.9,1.1v3h-1.5v-3c0-0.7-0.3-1.1-0.9-1.1s-0.9,0.4-0.9,1.1v3h-1.5L112.8,69.6z"/>
<path d="M122,72.3L122,72.3c-0.1-1.5,1.1-2.7,2.5-2.8c0,0,0.1,0,0.1,0c1.4,0,2.6,1.2,2.6,2.6c0,0.1,0,0.2,0,0.3c0,0.1,0,0.3,0,0.4
	h-3.7c0.1,0.6,0.7,1.1,1.3,1.1c0.5,0,1-0.2,1.3-0.6l0.9,0.8c-1,1.2-2.8,1.4-4,0.4C122.4,73.9,122,73.1,122,72.3L122,72.3z
	 M125.8,71.8c0-0.6-0.5-1.1-1.1-1.1c-0.6,0-1.1,0.5-1.2,1.1H125.8z"/>
<path d="M128.4,69.6h1.5v1.1c0.2-0.7,0.9-1.2,1.7-1.2V71h-0.1c-1,0-1.6,0.6-1.6,1.9v2h-1.5V69.6z"/>
<path d="M81.1,79.9h1.4l3,7h-1.6l-0.6-1.5h-2.9L79.7,87h-1.6L81.1,79.9z M82.7,84l-0.9-2.3L80.9,84H82.7z"/>
<path d="M86.5,81.6H88v0.8c0.4-0.6,1-0.9,1.7-0.9c1.4,0,2.5,1.2,2.5,2.6c0,0.1,0,0.1,0,0.2l0,0c0.1,1.4-0.9,2.6-2.2,2.8
	c-0.1,0-0.1,0-0.2,0c-0.7,0-1.3-0.3-1.7-0.8v2.3h-1.5V81.6z M90.6,84.2L90.6,84.2c0.1-0.7-0.4-1.4-1.1-1.5c-0.7-0.1-1.4,0.4-1.5,1.1
	c0,0.1,0,0.3,0,0.4l0,0c-0.1,0.7,0.4,1.4,1.1,1.5c0.7,0.1,1.4-0.4,1.5-1.1C90.6,84.5,90.6,84.4,90.6,84.2z"/>
<path d="M93.2,81.6h1.5v0.8c0.4-0.6,1-0.9,1.7-0.9c1.4,0,2.5,1.2,2.5,2.6c0,0.1,0,0.1,0,0.2l0,0c0.2,1.4-0.8,2.6-2.2,2.8
	c-0.1,0-0.2,0-0.2,0c-0.7,0-1.3-0.3-1.7-0.8v2.3h-1.5L93.2,81.6z M97.3,84.2L97.3,84.2c0.1-0.7-0.4-1.4-1.1-1.5
	c-0.7-0.1-1.4,0.4-1.5,1.1c0,0.1,0,0.3,0,0.4l0,0c-0.1,0.7,0.4,1.4,1.1,1.5c0.7,0.1,1.4-0.4,1.5-1.1C97.3,84.5,97.3,84.4,97.3,84.2z
	"/>
<path d="M100,79.6h1.5v7.3H100V79.6z"/>
<path d="M103,79.6h1.6V81H103V79.6z M103,81.6h1.5v5.4H103V81.6z"/>
<path d="M105.7,84.3L105.7,84.3c0-1.5,1.2-2.8,2.7-2.8c0,0,0.1,0,0.1,0c0.8,0,1.6,0.3,2.1,0.9l-0.9,1c-0.3-0.4-0.7-0.6-1.2-0.6
	c-0.8,0-1.3,0.7-1.3,1.4c0,0,0,0,0,0l0,0c-0.1,0.8,0.5,1.4,1.3,1.5c0,0,0.1,0,0.1,0c0.5,0,0.9-0.2,1.2-0.6l0.9,0.9
	c-0.5,0.7-1.3,1-2.2,1c-1.5,0-2.8-1.2-2.8-2.7C105.7,84.3,105.7,84.3,105.7,84.3z"/>
<path d="M111.4,85.4L111.4,85.4c0-1.2,0.9-1.7,2.2-1.7c0.4,0,0.9,0.1,1.3,0.2v-0.1c0-0.6-0.4-1-1.2-1c-0.5,0-1,0.1-1.5,0.3l-0.4-1.2
	c0.7-0.3,1.4-0.4,2.1-0.4c0.7-0.1,1.3,0.2,1.8,0.6c0.4,0.5,0.6,1.1,0.6,1.7v3.1h-1.5v-0.5c-0.4,0.5-1,0.7-1.6,0.7
	c-0.9,0.1-1.7-0.6-1.8-1.5C111.4,85.5,111.4,85.5,111.4,85.4z M114.9,85v-0.3c-0.3-0.1-0.7-0.2-1-0.2c-0.7,0-1,0.3-1,0.7l0,0
	c0,0.4,0.3,0.7,0.8,0.7C114.4,86,114.9,85.6,114.9,85L114.9,85z"/>
<path d="M117.8,85.4v-2.5h-0.6v-1.3h0.6v-1.4h1.6v1.4h1.3v1.3h-1.3v2.3c0,0.3,0.1,0.5,0.5,0.5c0.3,0,0.5-0.1,0.8-0.2v1.2
	c-0.4,0.2-0.8,0.3-1.2,0.3C118.5,87,117.8,86.6,117.8,85.4z"/>
<path d="M121.8,79.6h1.6V81h-1.6L121.8,79.6z M121.8,81.6h1.5v5.4h-1.5V81.6z"/>
<path d="M124.5,84.3L124.5,84.3c0-1.6,1.3-2.9,2.9-2.9c1.6,0,2.9,1.3,2.9,2.9l0,0c0,1.6-1.3,2.9-2.9,2.9
	C125.8,87.2,124.5,85.9,124.5,84.3L124.5,84.3z M128.8,84.3L128.8,84.3c0-0.8-0.6-1.5-1.3-1.5c0,0,0,0-0.1,0c-0.8,0-1.4,0.6-1.4,1.3
	c0,0,0,0.1,0,0.1l0,0c0,0.8,0.6,1.5,1.3,1.5c0,0,0,0,0.1,0c0.8,0,1.4-0.6,1.4-1.3C128.8,84.4,128.8,84.3,128.8,84.3z"/>
<path d="M131.4,81.6h1.5v0.8c0.3-0.5,0.9-0.9,1.6-0.9c1,0,1.8,0.7,1.8,1.7c0,0.1,0,0.2,0,0.3v3.5h-1.5v-3c0-0.7-0.3-1.1-0.9-1.1
	s-0.9,0.4-0.9,1.1v3h-1.5V81.6z"/>
<path d="M326,214h1.5v2.8h2.9V214h1.5v7h-1.5v-2.8h-2.8v2.8H326L326,214z"/>
<path d="M336,214h1.4l3,7.1h-1.6l-0.6-1.6h-3l-0.6,1.6h-1.6L336,214z M337.6,218.1l-0.9-2.3l-0.9,2.3H337.6z"/>
<path d="M341.5,214h1.5v5.6h3.5v1.4h-5L341.5,214z"/>
<path d="M99.4,214h1.5v2.8h2.8V214h1.5v7h-1.5v-2.8h-2.8v2.8h-1.6V214z"/>
<path d="M109.4,214h1.4l3,7h-1.6l-0.6-1.6h-3l-0.6,1.6h-1.5L109.4,214z M111,218.1l-0.9-2.3l-0.9,2.3H111z"/>
<path d="M114.9,214h1.5v5.6h3.5v1.4h-5L114.9,214z"/>
<path d="M324.5,325.9h2.9c1.3-0.2,2.5,0.8,2.7,2.1c0,0.1,0,0.2,0,0.3l0,0c0,1.6-1.3,2.5-2.8,2.5h-1.2v2.1h-1.5L324.5,325.9z
	 M327.3,329.5c0.6,0.1,1.1-0.3,1.2-0.9c0,0,0-0.1,0-0.1l0,0c0-0.7-0.5-1.1-1.2-1.1h-1.2v2.1L327.3,329.5z"/>
<path d="M331.2,325.9h1.5v2.8h2.8v-2.8h1.5v7h-1.5v-2.8h-2.8v2.8h-1.5V325.9z"/>
<path d="M340.8,330.2l-2.7-4.2h1.8l1.7,2.8l1.7-2.8h1.8l-2.7,4.2v2.8h-1.5V330.2z"/>
<path d="M97.5,325.9h2.8c1.3-0.2,2.5,0.8,2.7,2.1c0,0.1,0,0.2,0,0.3l0,0c0,1.6-1.3,2.5-2.8,2.5h-1.2v2.1h-1.5L97.5,325.9z
	 M100.3,329.5c0.6,0.1,1.1-0.3,1.2-0.9c0,0,0-0.1,0-0.1l0,0c0-0.7-0.5-1.1-1.2-1.1h-1.2v2.1L100.3,329.5z"/>
<path d="M104.2,325.9h1.5v2.8h2.8v-2.8h1.5v7h-1.5v-2.8h-2.8v2.8h-1.5V325.9z"/>
<path d="M113.8,330.2l-2.7-4.2h1.8l1.7,2.8l1.7-2.8h1.8l-2.7,4.2v2.8h-1.5V330.2z"/>
<path class="st8" d="M338.6,175.8h2.8c1.3-0.2,2.5,0.8,2.7,2.1c0,0.1,0,0.2,0,0.3l0,0c0,1.6-1.3,2.5-2.8,2.5h-1.2v2.1h-1.5
	L338.6,175.8z M341.3,179.3c0.6,0.1,1.1-0.3,1.2-0.9c0,0,0-0.1,0-0.1l0,0c0-0.7-0.5-1.1-1.2-1.1h-1.2v2.1L341.3,179.3z"/>
<path class="st8" d="M344.7,181.2L344.7,181.2c0-1.2,0.9-1.7,2.2-1.7c0.4,0,0.9,0.1,1.3,0.2v-0.1c0-0.6-0.4-1-1.1-1
	c-0.5,0-1,0.1-1.5,0.3l-0.4-1.2c0.7-0.3,1.4-0.4,2.1-0.4c0.7-0.1,1.3,0.2,1.8,0.6c0.4,0.5,0.6,1.1,0.6,1.7v3.1h-1.5v-0.6
	c-0.4,0.5-1,0.7-1.6,0.7c-0.9,0.1-1.7-0.6-1.8-1.5C344.7,181.3,344.7,181.3,344.7,181.2z M348.1,180.9v-0.3c-0.3-0.1-0.7-0.2-1-0.2
	c-0.6,0-1,0.3-1,0.7l0,0c0,0.4,0.3,0.6,0.8,0.6C347.7,181.8,348.1,181.4,348.1,180.9z"/>
<path class="st8" d="M350.6,180.1L350.6,180.1c0-1.5,1.2-2.8,2.7-2.8c0,0,0.1,0,0.1,0c0.8,0,1.6,0.3,2.1,0.9l-0.9,1
	c-0.3-0.4-0.7-0.6-1.2-0.6c-0.8,0-1.3,0.7-1.3,1.4c0,0,0,0,0,0l0,0c-0.1,0.8,0.5,1.4,1.3,1.5c0,0,0.1,0,0.1,0c0.5,0,0.9-0.2,1.2-0.6
	l0.9,0.9c-0.5,0.7-1.3,1-2.2,1c-1.5,0-2.8-1.2-2.8-2.7C350.6,180.2,350.6,180.1,350.6,180.1z"/>
<path class="st8" d="M356.6,175.5h1.5v3.9l1.8-2h1.8l-2,2.1l2.1,3.2h-1.7l-1.4-2.2l-0.5,0.6v1.6h-1.5L356.6,175.5z"/>
<path class="st8" d="M362,180.1L362,180.1c-0.1-1.5,1.1-2.7,2.5-2.8c0,0,0.1,0,0.1,0c1.4,0,2.6,1.2,2.6,2.6c0,0.1,0,0.2,0,0.3
	c0,0.1,0,0.3,0,0.4h-3.7c0.1,0.6,0.7,1.1,1.3,1.1c0.5,0,1-0.2,1.3-0.6l0.9,0.8c-1,1.2-2.8,1.4-4,0.4C362.4,181.7,362,181,362,180.1
	L362,180.1z M365.8,179.7c0-0.6-0.5-1.1-1.1-1.1c-0.6,0-1.1,0.5-1.2,1.1H365.8z"/>
<path class="st8" d="M368.7,181.2v-2.5H368v-1.3h0.6V176h1.5v1.4h1.3v1.3h-1.3v2.3c0,0.4,0.1,0.5,0.5,0.5c0.3,0,0.5-0.1,0.8-0.2v1.2
	c-0.4,0.2-0.8,0.3-1.2,0.3C369.3,182.9,368.7,182.5,368.7,181.2z"/>
<path class="st8" d="M375.7,175.8h5.3v1.4h-3.8v1.5h3.3v1.4h-3.3v2.7h-1.5L375.7,175.8z"/>
<path class="st8" d="M381.7,180.1L381.7,180.1c0-1.6,1.3-2.9,2.9-2.9c1.6,0,2.9,1.3,2.9,2.9l0,0c0,1.6-1.3,2.9-2.9,2.9
	C383,183,381.7,181.7,381.7,180.1z M386,180.1L386,180.1c0-0.8-0.6-1.4-1.4-1.5c0,0,0,0-0.1,0c-0.8,0-1.4,0.6-1.4,1.3
	c0,0,0,0.1,0,0.1l0,0c0,0.8,0.6,1.4,1.4,1.5c0,0,0,0,0.1,0c0.8,0,1.4-0.6,1.4-1.3C386,180.2,386,180.1,386,180.1L386,180.1z"/>
<path class="st8" d="M388.6,177.4h1.5v1.1c0.2-0.7,0.9-1.2,1.7-1.2v1.6h-0.1c-1,0-1.6,0.6-1.6,1.9v2h-1.5V177.4z"/>
<path class="st8" d="M392.4,177.4h1.5l0.9,3.2l1-3.3h1.3l1,3.3l0.9-3.3h1.5l-1.7,5.4h-1.4l-1-3.3l-1,3.3h-1.4L392.4,177.4z"/>
<path class="st8" d="M400.9,181.2L400.9,181.2c0-1.2,0.9-1.7,2.2-1.7c0.4,0,0.9,0.1,1.3,0.2v-0.1c0-0.6-0.4-1-1.1-1
	c-0.5,0-1,0.1-1.5,0.3l-0.4-1.2c0.6-0.3,1.3-0.4,2-0.4c0.7-0.1,1.3,0.2,1.8,0.6c0.4,0.5,0.6,1.1,0.6,1.7v3.1h-1.4v-0.6
	c-0.4,0.5-1,0.7-1.6,0.7c-0.9,0.1-1.7-0.5-1.9-1.4C400.9,181.4,400.9,181.3,400.9,181.2z M404.4,180.9v-0.3c-0.3-0.1-0.7-0.2-1-0.2
	c-0.6,0-1,0.3-1,0.7l0,0c0,0.4,0.3,0.6,0.8,0.6C403.9,181.8,404.4,181.4,404.4,180.9L404.4,180.9z"/>
<path class="st8" d="M407.1,177.4h1.5v1.1c0.2-0.7,0.9-1.2,1.7-1.2v1.6h-0.1c-1,0-1.6,0.6-1.6,1.9v2h-1.5V177.4z"/>
<path class="st8" d="M411,180.1L411,180.1c-0.1-1.4,0.9-2.6,2.2-2.8c0.1,0,0.1,0,0.2,0c0.7,0,1.3,0.3,1.7,0.8v-2.6h1.5v7.3h-1.5V182
	c-0.4,0.6-1,0.9-1.7,0.9c-1.4,0-2.5-1.2-2.5-2.6C410.9,180.2,411,180.2,411,180.1z M415.1,180.1L415.1,180.1
	c0.1-0.7-0.4-1.4-1.1-1.5c-0.7-0.1-1.4,0.4-1.5,1.1c0,0.1,0,0.3,0,0.4l0,0c-0.1,0.7,0.4,1.4,1.1,1.5c0.7,0.1,1.4-0.4,1.5-1.1
	C415.1,180.4,415.1,180.2,415.1,180.1z"/>
<path d="M313.3,263.9l0.9-1.1c0.6,0.5,1.3,0.8,2.1,0.9c0.6,0,1-0.2,1-0.7l0,0c0-0.4-0.2-0.6-1.4-0.9c-1.4-0.4-2.3-0.8-2.3-2.1l0,0
	c0-1.2,1.1-2.2,2.3-2.1c0.1,0,0.1,0,0.2,0c0.9,0,1.9,0.3,2.6,0.9l-0.8,1.1c-0.5-0.4-1.2-0.6-1.8-0.7c-0.6,0-0.9,0.3-0.9,0.6l0,0
	c0,0.5,0.3,0.6,1.5,0.9c1.4,0.4,2.2,0.9,2.2,2.1l0,0c0,1.4-1.1,2.2-2.6,2.2C315.2,265,314.1,264.6,313.3,263.9z"/>
<path d="M320.2,257.9h2.9c1.3-0.2,2.5,0.8,2.7,2.1c0,0.1,0,0.2,0,0.3l0,0c0,1.6-1.3,2.5-2.8,2.5h-1.2v2.1h-1.5L320.2,257.9z
	 M323,261.5c0.6,0.1,1.1-0.3,1.2-0.9c0,0,0-0.1,0-0.1l0,0c0-0.7-0.5-1.1-1.2-1.1h-1.2v2.1L323,261.5z"/>
<path d="M326.9,257.9h1.5v7h-1.5V257.9z"/>
<path d="M333.5,257h1.3l-4.5,9.2h-1.3L333.5,257z"/>
<path d="M335.4,261.9v-4h1.5v4c0,1.1,0.6,1.7,1.5,1.7s1.5-0.6,1.5-1.7v-4h1.5v3.9c0.2,1.5-0.9,3-2.4,3.2c-0.2,0-0.4,0-0.6,0
	c-1.5,0.1-2.9-1-3-2.5C335.4,262.3,335.4,262.1,335.4,261.9z"/>
<path d="M342.6,263.9l0.9-1.1c0.6,0.5,1.3,0.8,2.1,0.9c0.6,0,1-0.2,1-0.7l0,0c0-0.4-0.2-0.6-1.4-0.9c-1.4-0.4-2.3-0.8-2.3-2.1l0,0
	c0-1.2,1.1-2.2,2.3-2.1c0.1,0,0.1,0,0.2,0c0.9,0,1.9,0.3,2.6,0.9l-0.8,1.1c-0.5-0.4-1.2-0.6-1.8-0.7c-0.6,0-0.9,0.3-0.9,0.6l0,0
	c0,0.5,0.3,0.6,1.5,0.9c1.4,0.4,2.2,0.9,2.2,2.1l0,0c0,1.4-1.1,2.2-2.6,2.2C344.5,265,343.4,264.6,342.6,263.9z"/>
<path d="M349.5,257.9h3.2c0.7,0,1.3,0.2,1.8,0.6c0.3,0.3,0.5,0.7,0.5,1.2l0,0c0,0.6-0.3,1.2-0.9,1.5c0.8,0.2,1.3,0.9,1.3,1.7l0,0
	c0,1.3-1,1.9-2.6,1.9h-3.3V257.9z M352.4,260.8c0.7,0,1.1-0.2,1.1-0.7l0,0c0-0.5-0.4-0.7-1-0.7H351v1.5L352.4,260.8z M352.8,263.6
	c0.7,0,1.1-0.2,1.1-0.8l0,0c0-0.5-0.4-0.8-1.1-0.8H351v1.5L352.8,263.6z"/>
<path d="M99.5,263.9l0.9-1.1c0.6,0.5,1.3,0.8,2.1,0.9c0.6,0,1-0.2,1-0.7l0,0c0-0.4-0.2-0.6-1.4-0.9c-1.4-0.4-2.3-0.8-2.3-2.1l0,0
	c0-1.2,1.1-2.2,2.3-2.1c0.1,0,0.1,0,0.2,0c0.9,0,1.9,0.3,2.6,0.9l-0.8,1.1c-0.5-0.4-1.2-0.6-1.8-0.7c-0.6,0-0.9,0.3-0.9,0.6l0,0
	c0,0.5,0.3,0.6,1.5,0.9c1.4,0.4,2.2,0.9,2.2,2.1l0,0c0,1.4-1.1,2.2-2.6,2.2C101.4,265,100.4,264.6,99.5,263.9z"/>
<path d="M106.4,257.9h2.9c1.3-0.2,2.5,0.8,2.7,2.1c0,0.1,0,0.2,0,0.3l0,0c0,1.6-1.3,2.5-2.8,2.5H108v2.1h-1.5V257.9z M109.2,261.5
	c0.6,0.1,1.1-0.4,1.2-1c0,0,0-0.1,0-0.1l0,0c0-0.7-0.5-1.1-1.2-1.1h-1.2v2.1L109.2,261.5z"/>
<path d="M113.2,257.9h1.5v7h-1.5V257.9z"/>
<polygon class="st4" points="185.4,82.9 179.5,79.5 185.4,76.1 "/>
<polygon class="st4" points="595.6,82.9 601.5,79.5 595.6,76.1 "/>
<polygon class="st4" points="185.4,145.9 179.5,142.5 185.4,139.1 "/>
<polygon class="st4" points="595.6,145.9 601.5,142.5 595.6,139.1 "/>
<rect x="197.5" y="138.5" class="st7" width="14" height="9"/>
<line class="st9" x1="229.5" y1="150.9" x2="229.5" y2="151.1"/>
<line class="st10" x1="229.5" y1="157.1" x2="229.5" y2="336.9"/>
<line class="st9" x1="229.5" y1="339.9" x2="229.5" y2="340"/>
<line class="st9" x1="229.5" y1="87" x2="229.5" y2="87.1"/>
<line class="st11" x1="229.5" y1="92.9" x2="229.5" y2="132.5"/>
<line class="st9" x1="229.5" y1="135.4" x2="229.5" y2="135.5"/>
<line class="st9" x1="229.5" y1="354" x2="229.5" y2="354.1"/>
<line class="st12" x1="229.5" y1="359.8" x2="229.5" y2="380.5"/>
<polyline class="st9" points="229.5,383.4 229.5,383.5 229.4,383.5 "/>
<line class="st13" x1="223.4" y1="383.5" x2="3.6" y2="383.5"/>
<polyline class="st9" points="0.6,383.5 0.5,383.5 0.5,383.4 "/>
<line class="st14" x1="0.5" y1="377.4" x2="0.5" y2="3.6"/>
<polyline class="st9" points="0.5,0.6 0.5,0.5 0.6,0.5 "/>
<line class="st13" x1="6.6" y1="0.5" x2="226.4" y2="0.5"/>
<polyline class="st9" points="229.4,0.5 229.5,0.5 229.5,0.6 "/>
<line class="st15" x1="229.5" y1="6.4" x2="229.5" y2="69.5"/>
<line class="st9" x1="229.5" y1="72.4" x2="229.5" y2="72.5"/>
<path class="st16" d="M587.5,312.7"/>
<line class="st17" x1="587.5" y1="71.2" x2="587.5" y2="71"/>
<line class="st18" x1="587.5" y1="64.9" x2="587.5" y2="3.7"/>
<polyline class="st17" points="587.5,0.6 587.5,0.5 587.6,0.5 "/>
<line class="st19" x1="593.7" y1="0.5" x2="767.3" y2="0.5"/>
<polyline class="st17" points="770.4,0.5 770.5,0.5 770.5,0.6 "/>
<line class="st20" x1="770.5" y1="6.7" x2="770.5" y2="380.4"/>
<polyline class="st17" points="770.5,383.4 770.5,383.5 770.4,383.5 "/>
<line class="st19" x1="764.3" y1="383.5" x2="590.7" y2="383.5"/>
<polyline class="st17" points="587.6,383.5 587.5,383.5 587.5,383.4 "/>
<line class="st19" x1="587.5" y1="377.3" x2="587.5" y2="329.8"/>
<line class="st17" x1="587.5" y1="326.8" x2="587.5" y2="326.7"/>
<line class="st21" x1="587.5" y1="134.2" x2="587.5" y2="85.8"/>
<path class="st22" d="M587.5,134.2"/>
<line class="st21" x1="587.5" y1="279.7" x2="587.5" y2="151.2"/>
<line class="st9" x1="264.5" y1="340.5" x2="264.5" y2="340.4"/>
<line class="st23" x1="264.5" y1="334.4" x2="264.5" y2="161.6"/>
<polyline class="st9" points="264.5,158.6 264.5,158.5 264.6,158.5 "/>
<line class="st14" x1="270.6" y1="158.5" x2="531.4" y2="158.5"/>
<polyline class="st9" points="534.4,158.5 534.5,158.5 534.5,158.6 "/>
<line class="st24" x1="534.5" y1="164.8" x2="534.5" y2="276.6"/>
<line class="st9" x1="534.5" y1="279.7" x2="534.5" y2="279.8"/>
<path class="st22" d="M264.5,340.5"/>
<line class="st9" x1="534.5" y1="326.3" x2="534.5" y2="326.5"/>
<line class="st25" x1="534.5" y1="332.6" x2="534.5" y2="361.3"/>
<polyline class="st9" points="534.5,364.4 534.5,364.5 534.4,364.5 "/>
<line class="st14" x1="528.3" y1="364.5" x2="267.6" y2="364.5"/>
<polyline class="st9" points="264.6,364.5 264.5,364.5 264.5,364.4 "/>
<line class="st26" x1="264.5" y1="359.4" x2="264.5" y2="356.6"/>
<line class="st9" x1="264.5" y1="354.1" x2="264.5" y2="354"/>
<polygon class="st4" points="669.1,290.4 672.5,284.5 675.9,290.4 "/>
<polygon class="st4" points="439.9,290.4 436.5,284.5 433.1,290.4 "/>
<g>
	<rect x="443.5" y="78.7" class="st4" width="153.1" height="1.5"/>
	<rect x="184.4" y="78.7" class="st4" width="167.1" height="1.5"/>
</g>
<path d="M356.9,73.6h8.6v2.2h-6.1v2.3h5.4v2.2h-5.4v2.4h6.2v2.2h-8.6L356.9,73.6z"/>
<path d="M367.5,76.2h2.5v1.2c0.6-0.9,1.5-1.4,2.5-1.4c1.9,0,3,1.2,3,3.2v5.6H373v-4.8c0-1.2-0.5-1.8-1.5-1.8s-1.5,0.6-1.5,1.8v4.8
	h-2.5V76.2z"/>
<path d="M377.2,80.6L377.2,80.6c0-2.5,1.9-4.5,4.4-4.5c0.1,0,0.1,0,0.2,0c1.3-0.1,2.6,0.5,3.5,1.5l-1.5,1.6c-0.5-0.6-1.2-1-2-1
	c-1.2,0.1-2.2,1.1-2.1,2.3c0,0,0,0,0,0l0,0c-0.1,1.2,0.8,2.3,2,2.4c0.1,0,0.1,0,0.2,0c0.8,0,1.5-0.3,2-0.9l1.4,1.5
	c-0.9,1.1-2.2,1.6-3.5,1.6C379.3,85.1,377.3,83.2,377.2,80.6C377.2,80.7,377.2,80.7,377.2,80.6z"/>
<path d="M386.9,76.2h2.5V78c0.4-1.2,1.5-2,2.8-1.9v2.6H392c-1.6,0-2.6,1-2.6,3.1v3.2h-2.5L386.9,76.2z"/>
<path d="M393.6,87l0.8-1.8c0.3,0.2,0.7,0.3,1.1,0.3c0.4,0,0.7-0.2,0.9-0.6l-3.4-8.7h2.6l2,5.9l1.9-5.9h2.6l-3.3,8.9
	c-0.7,1.8-1.4,2.4-2.9,2.4C395,87.6,394.2,87.4,393.6,87z"/>
<path d="M403.4,76.2h2.5v1.2c0.6-0.9,1.6-1.4,2.7-1.4c2,0,4,1.6,4,4.5l0,0c0,2.9-1.9,4.5-4,4.5c-1.1,0-2.1-0.5-2.7-1.3v3.7h-2.5
	V76.2z M410,80.6L410,80.6c0.2-1.2-0.7-2.2-1.8-2.4c-1.2-0.2-2.2,0.7-2.4,1.8c0,0.2,0,0.4,0,0.6l0,0c-0.2,1.2,0.7,2.2,1.8,2.4
	c1.2,0.2,2.2-0.7,2.4-1.8C410.1,81,410.1,80.8,410,80.6z"/>
<path d="M414.7,82.5v-4.1h-1v-2.1h1V74h2.5v2.2h2v2.2h-2v3.7c0,0.6,0.2,0.8,0.8,0.8c0.4,0,0.8-0.1,1.2-0.3v2
	c-0.6,0.3-1.3,0.5-1.9,0.5C415.8,85.1,414.7,84.5,414.7,82.5z"/>
<path d="M420.4,80.6L420.4,80.6c-0.1-2.4,1.7-4.4,4.1-4.5c0.1,0,0.1,0,0.2,0c2.9,0,4.2,2.3,4.2,4.7c0,0.2,0,0.4,0,0.7h-6
	c0.2,1,1.1,1.8,2.1,1.7c0.8,0,1.6-0.3,2.1-0.9l1.4,1.2c-1.6,2-4.5,2.3-6.5,0.7C421,83.4,420.4,82,420.4,80.6z M426.5,79.9
	c0-1-0.8-1.8-1.8-1.8c-1,0-1.8,0.8-1.9,1.8H426.5z"/>
<path d="M430.4,80.6L430.4,80.6c0-2.9,1.9-4.5,4-4.5c1.1,0,2.1,0.5,2.7,1.3v-4.3h2.5v11.8H437v-1.2c-0.6,0.9-1.6,1.4-2.7,1.4
	C432.3,85.1,430.4,83.5,430.4,80.6z M437.1,80.6L437.1,80.6c0.1-1.2-0.7-2.2-1.9-2.4c-1.2-0.1-2.2,0.7-2.4,1.9c0,0.2,0,0.3,0,0.5
	l0,0c-0.1,1.2,0.7,2.2,1.9,2.4c1.2,0.1,2.2-0.7,2.4-1.9C437.1,80.9,437.1,80.8,437.1,80.6z"/>
<g>
	<rect x="184.4" y="141.7" class="st4" width="167.1" height="1.5"/>
	<rect x="443.5" y="141.7" class="st4" width="153.1" height="1.5"/>
</g>
<path d="M356.9,136.6h8.6v2.2h-6.1v2.3h5.4v2.2h-5.4v2.4h6.2v2.2h-8.6L356.9,136.6z"/>
<path d="M367.5,139.2h2.5v1.2c0.6-0.9,1.5-1.4,2.5-1.4c1.9,0,3,1.2,3,3.2v5.6H373v-4.8c0-1.2-0.5-1.8-1.5-1.8s-1.5,0.6-1.5,1.8v4.8
	h-2.5V139.2z"/>
<path d="M377.2,143.6L377.2,143.6c0-2.5,1.9-4.5,4.4-4.5c0.1,0,0.1,0,0.2,0c1.3-0.1,2.6,0.5,3.5,1.5l-1.5,1.6c-0.5-0.6-1.2-1-2-0.9
	c-1.2,0.1-2.2,1.1-2.1,2.3c0,0,0,0,0,0l0,0c-0.1,1.2,0.8,2.3,2,2.4c0.1,0,0.1,0,0.2,0c0.8,0,1.5-0.3,2-0.9l1.4,1.5
	c-0.9,1.1-2.2,1.6-3.5,1.6c-2.5,0-4.5-1.9-4.5-4.4C377.2,143.7,377.2,143.7,377.2,143.6z"/>
<path d="M386.9,139.2h2.5v1.8c0.4-1.2,1.5-2,2.8-1.9v2.6H392c-1.6,0-2.6,1-2.6,3.1v3.2h-2.5L386.9,139.2z"/>
<path d="M393.6,150l0.8-1.8c0.3,0.2,0.7,0.3,1.1,0.3c0.4,0,0.7-0.2,0.9-0.6l-3.4-8.7h2.6l2,5.9l1.9-5.9h2.6l-3.3,8.9
	c-0.7,1.8-1.4,2.4-2.9,2.4C395,150.6,394.2,150.4,393.6,150z"/>
<path d="M403.4,139.2h2.5v1.2c0.6-0.9,1.6-1.4,2.7-1.4c2,0,4,1.6,4,4.5l0,0c0,2.9-1.9,4.5-4,4.5c-1.1,0-2.1-0.5-2.7-1.3v3.7h-2.5
	V139.2z M410,143.6L410,143.6c0.2-1.2-0.7-2.2-1.8-2.4c-1.2-0.2-2.2,0.7-2.4,1.8c0,0.2,0,0.4,0,0.6l0,0c-0.2,1.2,0.7,2.2,1.8,2.4
	c1.2,0.2,2.2-0.7,2.4-1.8C410.1,144,410.1,143.8,410,143.6z"/>
<path d="M414.7,145.5v-4.1h-1v-2.1h1v-2.2h2.5v2.2h2v2.1h-2v3.7c0,0.6,0.2,0.9,0.8,0.9c0.4,0,0.8-0.1,1.2-0.3v2
	c-0.6,0.3-1.3,0.5-1.9,0.5C415.8,148.1,414.7,147.5,414.7,145.5z"/>
<path d="M420.4,143.6L420.4,143.6c-0.1-2.4,1.7-4.4,4.1-4.5c0.1,0,0.1,0,0.2,0c2.9,0,4.2,2.3,4.2,4.7c0,0.2,0,0.4,0,0.6h-6
	c0.2,1,1.1,1.8,2.1,1.7c0.8,0,1.6-0.3,2.1-0.9l1.4,1.2c-1.6,1.9-4.5,2.2-6.5,0.5C421.1,146.2,420.5,145,420.4,143.6L420.4,143.6z
	 M426.5,142.9c0-1-0.8-1.8-1.8-1.9c-1,0-1.8,0.8-1.9,1.9H426.5z"/>
<path d="M430.4,143.6L430.4,143.6c0-2.9,1.9-4.5,4-4.5c1.1,0,2.1,0.5,2.7,1.3v-4.3h2.5v11.8H437v-1.2c-0.6,0.9-1.6,1.4-2.7,1.4
	C432.3,148.1,430.4,146.5,430.4,143.6z M437.1,143.6L437.1,143.6c0.1-1.2-0.7-2.2-1.9-2.4c-1.2-0.1-2.2,0.7-2.4,1.9
	c0,0.2,0,0.3,0,0.5l0,0c-0.1,1.2,0.7,2.2,1.9,2.4c1.2,0.1,2.2-0.7,2.4-1.9C437.1,143.9,437.1,143.8,437.1,143.6z"/>
<g>
	<polygon class="st4" points="671.7,289.4 671.7,309.7 593.5,309.7 593.5,311.3 673.3,311.3 673.3,289.4 	"/>
	<polygon class="st4" points="530.5,309.7 437.3,309.7 437.3,289.4 435.7,289.4 435.7,311.3 530.5,311.3 	"/>
</g>
<path d="M532.6,314.3l1.5-1.8c0.9,0.9,2.1,1.3,3.4,1.4c1,0,1.6-0.4,1.6-1.1l0,0c0-0.6-0.4-1-2.3-1.4c-2.3-0.6-3.8-1.2-3.8-3.5l0,0
	c0-2.1,1.7-3.4,4-3.4c1.5,0,3,0.5,4.2,1.4l-1.3,1.9c-0.8-0.7-1.9-1.1-3-1.1c-1,0-1.5,0.4-1.5,1l0,0c0,0.8,0.5,1,2.5,1.5
	c2.3,0.6,3.6,1.4,3.6,3.4l0,0c0,2.2-1.7,3.5-4.2,3.5C535.7,316.1,533.9,315.4,532.6,314.3z"/>
<path d="M543.1,311.6L543.1,311.6c-0.1-2.4,1.7-4.4,4.1-4.5c0.1,0,0.1,0,0.2,0c2.9,0,4.2,2.3,4.2,4.7c0,0.2,0,0.4,0,0.6h-6
	c0.2,1,1.1,1.8,2.1,1.7c0.8,0,1.6-0.3,2.1-0.9l1.4,1.2c-1.6,1.9-4.5,2.2-6.5,0.5C543.8,314.2,543.2,313,543.1,311.6L543.1,311.6z
	 M549.2,310.9c0-1-0.8-1.8-1.8-1.9c-1,0-1.7,0.7-1.9,1.9H549.2z"/>
<path d="M553,311.6L553,311.6c0-2.5,1.9-4.5,4.4-4.5c0.1,0,0.1,0,0.2,0c1.3-0.1,2.6,0.5,3.5,1.5l-1.5,1.6c-0.5-0.6-1.2-1-2-1
	c-1.2,0.1-2.2,1.1-2.1,2.3c0,0,0,0,0,0l0,0c-0.1,1.2,0.8,2.3,2.1,2.4c0,0,0.1,0,0.1,0c0.8,0,1.5-0.3,2-0.9l1.4,1.5
	c-0.9,1.1-2.2,1.6-3.5,1.6c-2.5,0-4.5-1.9-4.5-4.4C553,311.7,553,311.7,553,311.6z"/>
<path d="M562.6,312.9v-5.6h2.5v4.8c0,1.2,0.5,1.8,1.5,1.8s1.5-0.6,1.5-1.8v-4.8h2.5v8.7h-2.5v-1.2c-0.6,0.9-1.5,1.4-2.5,1.4
	C563.7,316.1,562.6,314.9,562.6,312.9z"/>
<path d="M572.8,307.2h2.5v1.8c0.4-1.2,1.5-2,2.8-1.9v2.6h-0.1c-1.6,0-2.6,1-2.6,3.1v3.2h-2.5V307.2z"/>
<path d="M578.9,311.6L578.9,311.6c-0.1-2.4,1.7-4.4,4.1-4.5c0.1,0,0.1,0,0.2,0c2.9,0,4.2,2.3,4.2,4.7c0,0.2,0,0.4,0,0.6h-6
	c0.2,1,1.1,1.8,2.1,1.7c0.8,0,1.6-0.3,2.1-0.9l1.4,1.2c-1.6,1.9-4.5,2.2-6.5,0.5C579.6,314.2,579,313,578.9,311.6L578.9,311.6z
	 M585,310.9c0-1-0.8-1.8-1.8-1.9c-1,0-1.8,0.8-1.9,1.9H585z"/>
<path d="M176.6,329.6h2.5v9.1h5.6v2.3h-8.1V329.6z"/>
<path d="M185.8,336.6L185.8,336.6c0-2.6,2.1-4.7,4.7-4.7c2.6,0,4.7,2.1,4.7,4.7l0,0c0,2.5-2.1,4.5-4.6,4.5c0,0-0.1,0-0.1,0
	c-2.5,0.1-4.6-1.9-4.7-4.4C185.8,336.7,185.8,336.7,185.8,336.6z M192.8,336.6L192.8,336.6c0-1.3-0.9-2.3-2.2-2.4c0,0,0,0-0.1,0
	c-1.2,0-2.2,1-2.3,2.2c0,0.1,0,0.1,0,0.2l0,0c0,1.3,0.9,2.3,2.2,2.4c0,0,0.1,0,0.1,0c1.2,0,2.2-1,2.2-2.2
	C192.8,336.7,192.8,336.7,192.8,336.6L192.8,336.6z"/>
<path d="M197.3,329.6h5.2c1.2-0.1,2.4,0.3,3.3,1.1c0.7,0.7,1,1.6,1,2.6l0,0c0.1,1.6-0.9,3-2.4,3.5l2.8,4h-2.9l-2.4-3.6h-2v3.6h-2.5
	L197.3,329.6z M202.3,335.1c1.2,0,1.9-0.6,1.9-1.6l0,0c0-1.1-0.8-1.6-2-1.6h-2.5v3.3L202.3,335.1z"/>
<path d="M208.2,338.4L208.2,338.4c0-1.9,1.4-2.8,3.5-2.8c0.7,0,1.4,0.1,2.1,0.4v-0.1c0-1-0.6-1.6-1.9-1.6c-0.8,0-1.6,0.2-2.4,0.5
	l-0.6-1.9c1.1-0.5,2.2-0.7,3.4-0.7c1.1-0.1,2.1,0.3,2.9,1c0.7,0.8,1,1.8,0.9,2.8v5h-2.4V340c-0.7,0.7-1.6,1.1-2.6,1.1
	c-1.5,0.2-2.8-0.9-3-2.4C208.2,338.6,208.2,338.5,208.2,338.4z M213.9,337.8v-0.4c-0.5-0.2-1-0.3-1.6-0.3c-1,0-1.7,0.4-1.7,1.2l0,0
	c0,0.7,0.6,1,1.4,1C213.1,339.4,213.9,338.8,213.9,337.8L213.9,337.8z"/>
<path d="M217.4,332.3L217.4,332.3c0-1.6,1.3-2.8,2.8-2.8c1.6,0,2.8,1.3,2.8,2.8c0,0,0,0,0,0l0,0c0,1.6-1.3,2.8-2.8,2.8
	C218.6,335.1,217.4,333.9,217.4,332.3C217.4,332.3,217.4,332.3,217.4,332.3z M222.7,332.3L222.7,332.3c0-1.4-1.1-2.5-2.5-2.5
	s-2.5,1.1-2.5,2.5l0,0c0,1.4,1.1,2.5,2.5,2.5S222.7,333.7,222.7,332.3z M219,330.7h1.4c0.7,0,1.2,0.3,1.2,1c0,0.4-0.2,0.8-0.6,0.9
	l0.7,1h-1l-0.6-0.9h-0.4v0.9h-0.8L219,330.7z M220.4,332.2c0.3,0,0.4-0.1,0.4-0.4s-0.2-0.4-0.4-0.4h-0.5v0.7H220.4z"/>
<path d="M229.4,329.6h8.6v2.3h-6.1v2.4h5.4v2.3h-5.4v4.4h-2.5V329.6z"/>
<path d="M239.3,339.3l1.5-1.8c0.9,0.9,2.1,1.3,3.4,1.4c1,0,1.6-0.4,1.6-1.1l0,0c0-0.6-0.4-1-2.3-1.4c-2.3-0.6-3.8-1.2-3.8-3.5l0,0
	c0-2.1,1.6-3.4,4-3.4c1.5,0,3,0.5,4.2,1.4l-1.3,1.9c-0.9-0.7-1.9-1.1-3-1.1c-1,0-1.5,0.4-1.5,1l0,0c0,0.8,0.5,1,2.4,1.5
	c2.3,0.6,3.6,1.4,3.6,3.4l0,0c0,2.2-1.7,3.5-4.2,3.5C242.3,341.1,240.6,340.4,239.3,339.3z"/>
<path d="M250.4,329.6h2.5v5l4.6-5h3l-4.6,4.8l4.8,6.5h-3l-3.5-4.8l-1.3,1.4v3.5h-2.5V329.6z"/>
<path d="M197.5,195.8v-4.6c0-2.7,1.6-4.4,3.9-4.4l0,0c2.6,0,4,2,4,4.6v1.9h3.4v2.5L197.5,195.8z M203.2,191.3c0.1-1-0.5-1.9-1.5-2
	c-0.1,0-0.1,0-0.2,0l0,0c-1.1,0-1.7,0.8-1.7,2v1.9h3.5L203.2,191.3z"/>
<path d="M200.2,185.2v-2.5h1.8c-1.2-0.4-2-1.5-1.9-2.8h2.6v0.1c0,1.6,1,2.6,3.1,2.6h3.2v2.5H200.2z"/>
<path d="M204.5,179.1L204.5,179.1c-2.5,0-4.6-2-4.6-4.6c0-0.1,0-0.1,0-0.2c-0.1-2.5,1.9-4.6,4.4-4.7c0,0,0.1,0,0.1,0l0,0
	c2.6,0,4.7,2.1,4.7,4.7C209.2,177,207.1,179.1,204.5,179.1L204.5,179.1z M204.5,172.1L204.5,172.1c-1.3,0-2.3,0.9-2.4,2.2
	c0,0,0,0,0,0.1c0,1.2,1,2.2,2.2,2.3c0.1,0,0.1,0,0.2,0l0,0c1.3,0,2.3-1,2.4-2.2c0,0,0,0,0-0.1c0-1.2-1-2.2-2.2-2.2
	C204.6,172.2,204.6,172.2,204.5,172.1L204.5,172.1z"/>
<path d="M204.5,168.4L204.5,168.4c-2.5,0-4.5-1.9-4.5-4.4c0-0.1,0-0.1,0-0.2c-0.1-1.3,0.5-2.6,1.5-3.5l1.6,1.5c-0.6,0.5-1,1.2-1,2
	c0.1,1.2,1.1,2.2,2.3,2.1c0,0,0,0,0,0l0,0c1.2,0.1,2.3-0.8,2.4-2.1c0,0,0-0.1,0-0.1c0-0.8-0.3-1.5-0.9-2l1.5-1.4
	c1.1,0.9,1.6,2.2,1.6,3.6C209,166.3,207.1,168.3,204.5,168.4C204.6,168.4,204.6,168.4,204.5,168.4z"/>
<path d="M204.5,159.4L204.5,159.4c-2.4,0.1-4.4-1.7-4.5-4.1c0-0.1,0-0.1,0-0.2c0-2.9,2.3-4.2,4.7-4.2c0.2,0,0.4,0,0.6,0v6
	c1-0.2,1.8-1.1,1.7-2.1c0-0.8-0.3-1.6-0.9-2.1l1.2-1.4c1.9,1.6,2.2,4.5,0.5,6.5C207.1,158.7,205.9,159.3,204.5,159.4L204.5,159.4z
	 M203.8,153.3c-1,0-1.8,0.8-1.9,1.8c0,1,0.8,1.8,1.9,1.9V153.3z"/>
<path d="M207.7,149.7l-1.6-1c0.6-0.8,1-1.7,1-2.7c0-0.7-0.3-1-0.6-1l0,0c-0.5,0-0.7,0.8-1,1.8c-0.4,1.2-0.9,2.6-2.6,2.6l0,0
	c-1.8,0-2.8-1.4-2.8-3.2c0-1.2,0.4-2.3,1-3.2l1.7,0.9c-0.5,0.7-0.7,1.5-0.8,2.4c0,0.6,0.3,0.9,0.6,0.9l0,0c0.5,0,0.7-0.8,1-1.8
	c0.4-1.2,1-2.6,2.6-2.6l0,0c1.9,0,2.8,1.4,2.8,3.3C208.9,147.4,208.5,148.6,207.7,149.7z"/>
<path d="M207.7,141.7l-1.6-1c0.6-0.8,1-1.7,1-2.7c0-0.7-0.3-1-0.6-1l0,0c-0.5,0-0.7,0.8-1,1.8c-0.4,1.2-0.9,2.6-2.6,2.6l0,0
	c-1.8,0-2.8-1.4-2.8-3.2c0-1.2,0.4-2.3,1-3.2l1.7,0.9c-0.5,0.7-0.7,1.5-0.8,2.4c0,0.6,0.3,0.9,0.6,0.9l0,0c0.5,0,0.7-0.8,1-1.8
	c0.4-1.2,1-2.6,2.6-2.6l0,0c1.9,0,2.8,1.4,2.8,3.3C208.9,139.4,208.5,140.7,207.7,141.7z"/>
<path d="M204.5,133.3L204.5,133.3c-2.5,0-4.5-2.1-4.5-4.6c0,0,0-0.1,0-0.1c-0.1-2.5,1.9-4.6,4.4-4.7c0,0,0.1,0,0.1,0l0,0
	c2.6,0,4.7,2.1,4.7,4.7C209.2,131.2,207.1,133.3,204.5,133.3L204.5,133.3z M204.5,126.3L204.5,126.3c-1.3,0-2.3,0.9-2.4,2.2
	c0,0,0,0,0,0.1c0,1.2,1,2.2,2.2,2.3c0.1,0,0.1,0,0.2,0l0,0c1.3,0,2.3-1,2.4-2.2c0,0,0,0,0-0.1C206.9,127.3,205.9,126.4,204.5,126.3
	C204.6,126.4,204.6,126.4,204.5,126.3L204.5,126.3z"/>
<path d="M200.2,122.1v-2.5h1.8c-1.2-0.4-2-1.5-1.9-2.8h2.6v0.1c0,1.6,1,2.6,3.1,2.6h3.2v2.5H200.2z"/>
</svg>
